<svg width="1440" height="266" viewBox="0 0 1440 266" xmlns="http://www.w3.org/2000/svg" xmlns:xlink="http://www.w3.org/1999/xlink"><title>mountains light</title><desc>Created using Figma</desc><use xlink:href="#a" transform="translate(0 .8)" fill="#95D968"/><use xlink:href="#b" transform="translate(363.92 9.7)" fill="#9AE56A"/><use xlink:href="#c" transform="translate(556.55 21.6)" fill="#92D468"/><use xlink:href="#d" transform="translate(784.13 12.5)" fill="#9AE56A"/><use xlink:href="#e" transform="translate(1115.23 9.63)" fill="#92D468"/><use xlink:href="#f" transform="translate(727.12 99.04)" fill="#9AE56A"/><use xlink:href="#g" transform="translate(1.39 103.26)" fill="#9AE56A"/><defs><path id="a" d="M.46 219.714C-9.76 213.849 153.556 96.306 184.566 96.306 215.575 96.306 334 219.714 334 219.714S459.987 21.874 521.779 1.323c61.793-20.55 202.842 205.105 202.842 205.105l85.14-107.767c1.953-2.472 5.678-2.544 7.724-.15l64.423 75.389L1116.79 3.39a4.994 4.994 0 0 1 5.75-.085L1440 219.714H.46z"/><path id="b" d="M.083 189.798c-4.014-5.07 139-198.403 151-189.5 10.765 7.988-54.528 154.165-68.074 184.151-1.514 3.351-4.676 5.498-8.346 5.715-18.03 1.067-71.25 3.841-74.58-.366z"/><path id="c" d="M117.924 205.195h46.032c3.93 0 6.293-4.372 4.199-7.698C100.083 89.41 62.359 40.907 15.349 9.488c-4.216-2.817-9.005 1.833-6.526 6.256L113.562 202.64a4.998 4.998 0 0 0 4.362 2.556z"/><path id="d" d="M12.036 244.497L333.25 4.201c.927-.693 2.094.478 1.398 1.402L150.146 250.711a6.998 6.998 0 0 1-5.592 2.79H15.031c-4.809 0-6.845-6.123-2.995-9.004z"/><path id="e" d="M304.378 214.763L11.107 7.837c-1.012-.714-2.163.686-1.267 1.54l220.37 210.009a2.999 2.999 0 0 0 2.069.829h70.37c2.927 0 4.121-3.764 1.729-5.452z"/><path id="f" d="M6.163 103.411L85.416 0 45.622 108.179a5 5 0 0 1-4.692 3.274h-30.8c-4.144 0-6.489-4.752-3.968-8.042z"/><path id="g" d="M178.677.62C173.455-8.595 42.029 87.526 7.99 112.641c-4.444 3.279-3.513 5.914 2.01 5.914h73.53c5.522 0 12.865-3.383 16.406-7.621C120.576 86.237 183.704 9.491 178.677.62z"/></defs></svg>