<svg width="606" height="259" viewBox="0 0 606 259" xmlns="http://www.w3.org/2000/svg" xmlns:xlink="http://www.w3.org/1999/xlink"><title>mountains</title><desc>Created using Figma</desc><use xlink:href="#a" transform="matrix(1 0 -.00002 1 0 155)" fill="#ADAB6D"/><use xlink:href="#b" transform="matrix(1 0 -.00002 1 26.28 155)" fill="#94D46A"/><use xlink:href="#c" transform="translate(42.15)" fill="#91D166"/><use xlink:href="#d" transform="translate(316.84 108.79)" fill="#94D669"/><use xlink:href="#e" transform="translate(45 125)" fill="#98DB6B"/><use xlink:href="#f" transform="translate(132.3 26.39)" fill="#98DB6B"/><use xlink:href="#g" transform="translate(358.91 13.84)" fill="#98DB6B"/><use xlink:href="#h" transform="translate(334.94 111)" fill="#FFF" fill-opacity=".5"/><use xlink:href="#i" transform="translate(41.85 76.74)" fill="#94D46A"/><use xlink:href="#j" transform="translate(177 84.34)" fill="#9BDE6F"/><use xlink:href="#k" transform="translate(355.62 78.69)" fill="#9BDE6F"/><use xlink:href="#l" transform="translate(449.62 76.82)" fill="#90CF67"/><use xlink:href="#m" transform="translate(307.7 157.46)" fill="#9AE56A"/><use xlink:href="#n" transform="translate(43.93 146)" fill="#9BDE6F"/><use xlink:href="#o" transform="translate(81 135)" fill="#FFF" fill-opacity=".6"/><use xlink:href="#p" transform="translate(170 37)" fill="#FFF" fill-opacity=".6"/><use xlink:href="#q" transform="translate(464 88)" fill="#FFF" fill-opacity=".6"/><use xlink:href="#r" transform="translate(319.77 161.75)" fill="#FFF" fill-opacity=".3"/><defs><path id="a" d="M605.998 52c0 28.719-135.658 52-302.999 52C135.657 104 0 80.719 0 52S135.657 0 302.999 0C470.34 0 605.998 23.281 605.998 52z"/><path id="b" d="M557.958 45.5c0 25.129-124.903 45.5-278.979 45.5C124.903 91 0 70.629 0 45.5S124.903 0 278.979 0c154.076 0 278.979 20.371 278.979 45.5z"/><path id="c" d="M0 187.038c8.77-14.937 23.193-37.399 36.64-54.727 1.97-2.537 5.783-2.497 7.759.033L87.1 187.038S141.468 26.461 188.149 23.853c46.682-2.608 85.31 143.644 85.31 143.644S292.506 107 300.902 107s22.742 40.804 22.742 40.804S378.291 1.499 410.456.009c32.165-1.49 116.988 187.029 116.988 187.029H0z"/><path id="d" d="M24.778.003C22.251-.403 6.201 42 1.373 54.923a2.928 2.928 0 0 0 2.566 3.965c4.526.276 11.337.555 11.337-.276 0-1.243 12.483-58.13 9.502-58.61z"/><path id="e" d="M0 62L34.075 9.183c.66-1.022 2.229-.203 1.765.923L14.481 62H0z"/><path id="f" d="M0 149C55.462-.658 103.158-13.278 89.703 8.106c-13.456 21.383-64.99 150.5-64.99 150.5L0 149z"/><path id="g" d="M0 172.724C43.14 35.642 79.323-1.744 85.186.062c5.863 1.805-53.863 172.662-53.863 172.662H0z"/><path id="h" fill-rule="evenodd" d="M43.798 14H0c.974-4.37 5.375-7.669 10.658-7.669 1.637 0 3.19.317 4.581.884C16.985 2.948 20.72 0 25.044 0c4.492 0 8.346 3.18 9.998 7.713.106-.004.213-.006.32-.006 3.762 0 7 2.585 8.436 6.293z"/><path id="i" d="M.14 137.974c-3.736-3.682 68.192-68.708 79.53-68.708 11.34 0 57.351 68.708 57.351 68.708S168.171 13.736 190.766.831c22.595-12.905 74.17 128.8 74.17 128.8l30.825-44.67c1.932-2.8 6.034-2.895 8.094-.189l18.595 24.433L405.598 5.542c1.962-2.446 5.665-2.503 7.702-.118l108.994 127.602c1.663 1.947.28 4.948-2.281 4.948H.141z"/><path id="j" d="M4.182 121.659C15.408 87.069 45.741-4.306 51.5.158c6.348 4.92-12.566 108.688-16.622 130.499-.44 2.362-2.488 4.001-4.89 4.001H13.663c-6.765 0-11.569-6.566-9.48-12.999z"/><path id="k" d="M6.035 120.516l85.83-113.91c.71-.944 2.183-.09 1.717.996L43.546 124.284a7 7 0 0 1-6.434 4.241H10.028c-4.125 0-6.476-4.714-3.993-8.009z"/><path id="l" d="M101.313 125.132l-90.114-111.3c-.794-.98-2.299.105-1.62 1.167l72.57 113.636a3 3 0 0 0 2.528 1.385H98.98c2.524 0 3.92-2.926 2.332-4.888z"/><path id="m" d="M5.275 42.776L34.2 0 16.575 47.322a5 5 0 0 1-4.686 3.255H9.417c-4.009 0-6.387-4.48-4.142-7.801z"/><path id="n" d="M77.789.524c-1.542-5.435-39.94 32.678-62.2 55.363-6.06 6.175-1.837 16.494 6.81 16.767l5.64.178a9.908 9.908 0 0 0 8.412-4.167C46.816 54.028 79.622 6.99 77.79.524z"/><path id="o" fill-rule="evenodd" d="M45.772 16H18.209a10.838 10.838 0 0 1-.22-.139l-.031.139H.228A8.606 8.606 0 0 1 0 14.026c0-4.878 4.071-8.831 9.093-8.831a9.24 9.24 0 0 1 5.111 1.526C15.312 2.862 19.39 0 24.248 0c4.414 0 8.182 2.36 9.666 5.685a9.33 9.33 0 0 1 2.993-.49C41.929 5.195 46 9.15 46 14.026A8.63 8.63 0 0 1 45.771 16z"/><path id="p" fill-rule="evenodd" d="M132 34H0c2.883-10.63 16.172-18.666 32.13-18.666 4.931 0 9.608.768 13.802 2.142C51.192 7.141 62.44 0 75.469 0c13.529 0 25.139 7.7 30.116 18.681.318-.01.637-.015.957-.015 11.374 0 21.152 6.304 25.458 15.334z"/><path id="q" fill-rule="evenodd" d="M104 33H0c2.313-10.301 12.764-18.077 25.307-18.077 3.888 0 7.575.747 10.88 2.085C40.334 6.95 49.203 0 59.471 0 70.136 0 79.29 7.495 83.212 18.182c.25-.01.502-.014.755-.014C92.9 18.168 100.587 24.26 104 33z"/><path id="r" fill-rule="evenodd" d="M24.873 10.02H0c.553-3.128 3.052-5.489 6.052-5.489.93 0 1.812.227 2.603.634C9.647 2.11 11.768 0 14.224 0c2.55 0 4.739 2.276 5.677 5.521a3.7 3.7 0 0 1 .181-.004c2.136 0 3.975 1.85 4.791 4.503z"/></defs></svg>