<svg width="27" height="27" viewBox="0 0 27 27" version="1.1" xmlns="http://www.w3.org/2000/svg" xmlns:xlink="http://www.w3.org/1999/xlink">
<desc>Created using Figma</desc>
<g id="Canvas" transform="translate(4364 -383)">
<g id="icon_twitter">
<use xlink:href="#t_path0_fill" transform="translate(-4364 383)" fill="#697175"/>
</g>
</g>
<defs>
<path id="t_path0_fill" fill-rule="evenodd" d="M 13.3618 27C 20.7415 27 26.7239 20.9559 26.7239 13.5C 26.7239 6.04413 20.7415 0 13.3618 0C 5.98242 0 0 6.04413 0 13.5C 0 20.9559 5.98242 27 13.3618 27ZM 18.9241 9.56091C 19.5413 9.48523 20.1292 9.32019 20.676 9.07483C 20.2676 9.69391 19.7502 10.2373 19.1533 10.6683C 19.1602 10.8013 19.1624 10.9343 19.1624 11.0696C 19.1624 15.1393 16.0942 19.835 10.4844 19.835C 8.76196 19.835 7.15747 19.3259 5.80957 18.4524C 6.04785 18.4799 6.28833 18.4937 6.53564 18.4937C 7.96533 18.4937 9.28174 18.003 10.3232 17.1753C 8.98901 17.1523 7.86328 16.2582 7.47534 15.0361C 7.66138 15.0728 7.85205 15.0911 8.04932 15.0911C 8.32861 15.0911 8.59644 15.0544 8.85278 14.9834C 7.45703 14.6991 6.40649 13.4541 6.40649 11.9615L 6.40649 11.9225C 6.81714 12.1541 7.28687 12.2916 7.78833 12.3077C 6.96924 11.7551 6.4314 10.8128 6.4314 9.74432C 6.4314 9.17804 6.58105 8.64838 6.84448 8.19208C 8.34888 10.0562 10.5957 11.2851 13.1304 11.4135C 13.0784 11.1888 13.051 10.9526 13.051 10.7119C 13.051 9.01062 14.4172 7.63037 16.1011 7.63037C 16.9792 7.63037 17.7712 8.00409 18.3274 8.60254C 19.0217 8.46497 19.6753 8.20813 20.2654 7.85504C 20.0383 8.57501 19.5527 9.17804 18.9241 9.56091Z"/>
</defs>
</svg>
