<svg width="27" height="27" viewBox="0 0 27 27" version="1.1" xmlns="http://www.w3.org/2000/svg" xmlns:xlink="http://www.w3.org/1999/xlink">
<desc>Created using Figma</desc>
<g id="Canvas" transform="translate(4324 -383)">
<g id="icon_facebook">
<use xlink:href="#f_path0_fill" transform="translate(-4324 383)" fill="#697175"/>
</g>
</g>
<defs>
<path id="f_path0_fill" fill-rule="evenodd" d="M 13.3618 27C 20.7415 27 26.7239 20.9559 26.7239 13.5C 26.7239 6.04413 20.7415 0 13.3618 0C 5.98242 0 0 6.04413 0 13.5C 0 20.9559 5.98242 27 13.3618 27ZM 14.0588 12.0172L 14.0588 10.1904C 14.0588 9.47986 14.1584 9.17505 15.0549 9.17505L 16.8474 9.17505L 16.8474 7.04346L 14.3662 7.0484C 12.0754 7.0484 11.2786 8.16541 11.2786 10.1954L 11.2786 12.0228L 9.87598 12.0172L 9.87598 14.1487L 11.2703 14.1487L 11.2703 20.5435L 14.0588 20.5435L 14.0588 14.1487L 16.1501 14.1487L 16.4988 12.0172L 14.0588 12.0172Z"/>
</defs>
</svg>
