<svg width="27" height="27" viewBox="0 0 27 27" version="1.1" xmlns="http://www.w3.org/2000/svg" xmlns:xlink="http://www.w3.org/1999/xlink">
<desc>Created using Figma</desc>
<g id="Canvas" transform="translate(4404 -383)">
<g id="icon_google">
<use xlink:href="#g_path0_fill" transform="translate(-4404 383)" fill="#697175"/>
</g>
</g>
<defs>
<path id="g_path0_fill" d="M 13.5 0C 6.075 0 0 6.075 0 13.5C 0 20.925 6.075 27 13.5 27C 20.925 27 27 20.925 27 13.5C 27 6.075 20.925 0 13.5 0ZM 12.5719 6.75L 16.6219 6.75L 15.3984 7.425L 14.175 7.425C 14.5811 7.83105 15.525 8.63789 15.525 10.125C 15.525 11.6121 14.734 12.2766 13.9219 12.9516C 13.6529 13.2205 13.3734 13.5158 13.3734 13.9219C 13.3734 14.3279 13.6529 14.5863 13.9219 14.7234L 14.5969 15.2719C 15.409 15.9469 16.2 16.6219 16.2 17.9719C 16.2 19.7279 14.4387 21.6 10.9266 21.6C 8.08945 21.6 6.75 20.2605 6.75 18.7734C 6.75 18.0984 7.14551 17.0016 8.22656 16.3266C 9.43945 15.6516 11.0795 15.5355 12.0234 15.3984C 11.7545 14.9924 11.475 14.7234 11.475 14.0484C 11.475 13.7795 11.6016 13.5158 11.6016 13.2469L 10.9266 13.2469C 8.76445 13.2469 7.67812 11.7439 7.67812 10.125C 7.67812 9.18105 8.08945 8.22656 8.90156 7.55156C 10.1145 6.87656 11.4908 6.75 12.5719 6.75ZM 11.3484 7.29844C 10.8105 7.29844 10.2674 7.56738 9.99844 7.97344C 9.59238 8.51133 9.45 9.04395 9.45 9.45C 9.45 10.8 10.2779 12.9516 11.8969 12.9516C 12.4348 12.9516 12.9779 12.6721 13.2469 12.4031C 13.7848 11.9971 13.7531 11.3326 13.7531 10.9266C 13.7531 9.57656 12.9674 7.29844 11.3484 7.29844ZM 18.9 10.8L 20.25 10.8L 20.25 13.5L 22.95 13.5L 22.95 14.85L 20.25 14.85L 20.25 17.55L 18.9 17.55L 18.9 14.85L 16.2 14.85L 16.2 13.5L 18.9 13.5L 18.9 10.8ZM 12.2766 16.0734C 12.1395 16.0734 11.0637 16.0576 10.2516 16.3266C 9.84551 16.4637 8.52188 17.0016 8.52188 18.3516C 8.52188 19.7016 9.86133 20.7984 12.0234 20.7984C 13.9113 20.7984 14.85 19.8598 14.85 18.6469C 14.85 17.7029 14.1855 17.1545 12.6984 16.0734L 12.2766 16.0734Z"/>
</defs>
</svg>
