<svg width="103" height="65" viewBox="0 0 103 65" version="1.1" xmlns="http://www.w3.org/2000/svg" xmlns:xlink="http://www.w3.org/1999/xlink">
<desc>Created using Figma</desc>
<g id="Canvas" transform="translate(6361 -320)">
<g id="logo">
<g id="SAVE">
<use xlink:href="#logo_path0_fill" transform="translate(-6361 347)" fill="#FFFFFF"/>
</g>
<g id="Vector">
<use xlink:href="#logo_path1_fill" transform="translate(-6287 320)" fill="#697175"/>
</g>
<g id="LET&#226;&#128;&#153;S">
<use xlink:href="#logo_path2_fill" transform="translate(-6361 320)" fill="#697175"/>
</g>
</g>
</g>
<defs>
<path id="logo_path0_fill" d="M 12.52 37.48C 19.68 37.48 24.04 34.08 24.04 28.2C 24.04 18.28 9.2 20.44 9.2 17.92C 9.2 17.24 9.64 16.72 11.24 16.72C 13.76 16.72 16.76 17.6 19.08 19.36L 23.4 13.64C 20.36 11.16 16.44 9.92 12.08 9.92C 4.76 9.92 1 14.24 1 18.76C 1 29.28 15.88 26.68 15.88 29.24C 15.88 30.28 14.44 30.68 12.92 30.68C 9.32 30.68 6.32 29.16 4.32 27.24L 0.12 33.24C 2.96 35.8 6.84 37.48 12.52 37.48ZM 53.2606 37L 43.4206 10.32L 33.2606 10.32L 23.4206 37L 32.5806 37L 33.5406 33.88L 43.1406 33.88L 44.1006 37L 53.2606 37ZM 40.9806 26.84L 35.7006 26.84L 38.3406 18.24L 40.9806 26.84ZM 70.2175 37L 80.0575 10.32L 70.8975 10.32L 65.1375 28.28L 59.3775 10.32L 50.2175 10.32L 60.0575 37L 70.2175 37ZM 101.736 37L 101.736 29.96L 89.5759 29.96L 89.5759 27.04L 101.456 27.04L 101.456 20L 89.5759 20L 89.5759 17.36L 101.736 17.36L 101.736 10.32L 81.4959 10.32L 81.4959 37L 101.736 37Z"/>
<path id="logo_path1_fill" d="M 24.0764 23.5484C 26.0729 22.7563 27.8359 21.3512 28.5529 19.2928C 29.3392 17.0352 28.8254 14.5145 27.5365 12.5426C 26.3462 10.7215 26.1852 8.40281 25.1319 6.50186C 23.943 4.35611 21.984 2.69398 19.722 1.72096C 16.9816 0.542105 13.826 0.433213 10.9457 1.15386C 9.25871 -0.261327 6.91134 -0.409664 5.10753 0.902879C 3.3449 2.18545 2.99034 4.42099 3.53483 6.41038C 1.87546 8.88817 0.819299 12.032 0.721085 15.0146C 0.616081 18.2034 2.51965 21.0419 5.18285 22.7151C 4.10654 24.4821 3.43226 26.4133 3.27213 28.2238C 0.599521 29.2472 -0.729907 32.3503 0.409373 34.9501C 1.55879 37.5731 4.79651 38.7616 7.40061 37.4841C 8.323 37.7556 9.34353 37.8678 10.3061 37.8312L 10.6007 37.8199C 10.667 37.8272 10.734 37.8321 10.8021 37.8321L 27.1002 37.8321C 29.2248 37.8321 29.1352 35.1526 28.8512 33.7115C 28.5109 31.9842 27.5335 30.3974 26.1099 29.3321C 25.8445 27.4901 25.1276 25.45 24.0764 23.5484ZM 20.2745 29.9212C 18.7201 30.1352 17.175 30.4846 15.6843 30.9694C 14.9088 31.2216 14.1431 31.5128 13.4138 31.8766C 13.2119 31.9773 12.7685 32.3292 12.5431 32.3096C 11.9561 32.2585 12.5038 31.7519 12.7147 31.6351C 14.1173 30.8585 15.686 30.3617 17.2378 29.9693C 18.8295 29.5668 20.5348 29.1962 22.1879 29.238C 22.1086 27.766 22.4544 26.2705 23.2146 24.998C 24.0549 26.7293 24.7042 28.6513 24.7667 30.5843C 23.3143 29.6589 21.8453 29.705 20.2745 29.9212ZM 2.8313 14.7294C 2.92753 13.5447 3.3452 11.0845 4.56764 8.74583C 5.32866 9.95856 6.45171 11.0234 7.87165 11.4183C 9.29845 11.815 10.8748 11.4244 12.01 10.5004C 14.3428 8.60167 13.8307 5.25271 12.4497 2.94832C 15.9887 2.37594 19.7906 3.23687 22.2215 5.97218C 23.4705 7.37757 23.9594 9.06108 24.5377 10.8016C 24.8345 11.6947 25.1264 12.6317 25.6294 13.4371C 26.1698 14.3024 26.6124 15.1494 26.7661 16.1694C 26.6971 16.1679 26.6283 16.1548 26.5631 16.1289L 26.051 15.9669C 25.3894 15.7037 24.9667 16.7069 25.4023 17.1367L 26.2576 17.9806C 26.3794 18.1008 26.5324 18.1689 26.6908 18.1906C 25.7272 22.0597 20.6071 22.5738 17.2894 22.5739L 12.1679 22.5739C 7.73881 22.5738 2.42486 19.735 2.8313 14.7294C 2.81478 14.9328 2.92753 13.5447 2.8313 14.7294ZM 19.4748 18.2782C 21.2058 18.6409 22.6791 17.0263 23.3527 15.6492C 24.1111 14.0986 24.1542 12.2067 23.1224 10.7608C 22.2233 9.50081 20.7219 9.03182 19.356 9.84802C 17.9907 10.6639 16.9215 12.2087 16.5275 13.7236C 15.9816 15.8224 17.3461 17.8325 19.4748 18.2782ZM 21.4923 12.0457C 22.312 12.0208 23.0054 12.9235 23.0409 14.062C 23.0765 15.2005 22.4408 16.1436 21.621 16.1686C 20.8013 16.1935 20.1079 15.2908 20.0724 14.1523C 20.0368 13.0138 20.6725 12.0707 21.4923 12.0457Z"/>
<path id="logo_path2_fill" d="M 13.234 24L 13.234 19.424L 6.656 19.424L 6.656 6.658L 1.404 6.658L 1.404 24L 13.234 24ZM 28.4995 24L 28.4995 19.424L 20.5955 19.424L 20.5955 17.526L 28.3175 17.526L 28.3175 12.95L 20.5955 12.95L 20.5955 11.234L 28.4995 11.234L 28.4995 6.658L 15.3435 6.658L 15.3435 24L 28.4995 24ZM 39.8017 24L 39.8017 11.234L 44.4297 11.234L 44.4297 6.658L 29.8957 6.658L 29.8957 11.234L 34.5497 11.234L 34.5497 24L 39.8017 24ZM 51.4946 9.752C 51.4946 7.62 50.0646 6.398 48.4786 6.398C 47.0226 6.398 45.7746 7.62 45.7746 9.128C 45.7746 10.584 46.7886 11.546 48.0366 11.546C 48.3226 11.546 48.5826 11.494 48.7126 11.442C 48.3746 12.43 47.1786 13.574 46.3466 13.938L 48.2446 15.472C 50.2726 14.042 51.4946 12.04 51.4946 9.752ZM 60.3411 24.312C 64.9951 24.312 67.8291 22.102 67.8291 18.28C 67.8291 11.832 58.1831 13.236 58.1831 11.598C 58.1831 11.156 58.4691 10.818 59.5091 10.818C 61.1471 10.818 63.0971 11.39 64.6051 12.534L 67.4131 8.816C 65.4371 7.204 62.8891 6.398 60.0551 6.398C 55.2971 6.398 52.8531 9.206 52.8531 12.144C 52.8531 18.982 62.5251 17.292 62.5251 18.956C 62.5251 19.632 61.5891 19.892 60.6011 19.892C 58.2611 19.892 56.3111 18.904 55.0111 17.656L 52.2811 21.556C 54.1271 23.22 56.6491 24.312 60.3411 24.312Z"/>
</defs>
</svg>
