<svg width="167" height="27" viewBox="0 0 167 27" version="1.1" xmlns="http://www.w3.org/2000/svg" xmlns:xlink="http://www.w3.org/1999/xlink">
<title>logo_line</title>
<desc>Created using Figma</desc>
<g id="Canvas" transform="translate(8202 -414)">
<g id="logo_line">
<g id="LET&#226;&#128;&#153;S SAVE">
<use xlink:href="#path0_fill" transform="translate(-8203 414)" fill="#FFFFFF"/>
</g>
<g id="Vector">
<use xlink:href="#path1_fill" transform="translate(-8128 414)" fill="#697175"/>
</g>
</g>
</g>
<defs>
<path id="path0_fill" d="M 13.234 24L 13.234 19.424L 6.656 19.424L 6.656 6.658L 1.404 6.658L 1.404 24L 13.234 24ZM 28.4995 24L 28.4995 19.424L 20.5955 19.424L 20.5955 17.526L 28.3175 17.526L 28.3175 12.95L 20.5955 12.95L 20.5955 11.234L 28.4995 11.234L 28.4995 6.658L 15.3435 6.658L 15.3435 24L 28.4995 24ZM 39.8017 24L 39.8017 11.234L 44.4297 11.234L 44.4297 6.658L 29.8957 6.658L 29.8957 11.234L 34.5497 11.234L 34.5497 24L 39.8017 24ZM 51.4946 9.752C 51.4946 7.62 50.0646 6.398 48.4786 6.398C 47.0226 6.398 45.7746 7.62 45.7746 9.128C 45.7746 10.584 46.7886 11.546 48.0366 11.546C 48.3226 11.546 48.5826 11.494 48.7126 11.442C 48.3746 12.43 47.1786 13.574 46.3466 13.938L 48.2446 15.472C 50.2726 14.042 51.4946 12.04 51.4946 9.752ZM 60.3411 24.312C 64.9951 24.312 67.8291 22.102 67.8291 18.28C 67.8291 11.832 58.1831 13.236 58.1831 11.598C 58.1831 11.156 58.4691 10.818 59.5091 10.818C 61.1471 10.818 63.0971 11.39 64.6051 12.534L 67.4131 8.816C 65.4371 7.204 62.8891 6.398 60.0551 6.398C 55.2971 6.398 52.8531 9.206 52.8531 12.144C 52.8531 18.982 62.5251 17.292 62.5251 18.956C 62.5251 19.632 61.5891 19.892 60.6011 19.892C 58.2611 19.892 56.3111 18.904 55.0111 17.656L 52.2811 21.556C 54.1271 23.22 56.6491 24.312 60.3411 24.312ZM 109.421 24.312C 114.075 24.312 116.909 22.102 116.909 18.28C 116.909 11.832 107.263 13.236 107.263 11.598C 107.263 11.156 107.549 10.818 108.589 10.818C 110.227 10.818 112.177 11.39 113.685 12.534L 116.493 8.816C 114.517 7.204 111.969 6.398 109.135 6.398C 104.377 6.398 101.933 9.206 101.933 12.144C 101.933 18.982 111.605 17.292 111.605 18.956C 111.605 19.632 110.669 19.892 109.681 19.892C 107.341 19.892 105.391 18.904 104.091 17.656L 101.361 21.556C 103.207 23.22 105.729 24.312 109.421 24.312ZM 135.903 24L 129.507 6.658L 122.903 6.658L 116.507 24L 122.461 24L 123.085 21.972L 129.325 21.972L 129.949 24L 135.903 24ZM 127.921 17.396L 124.489 17.396L 126.205 11.806L 127.921 17.396ZM 146.925 24L 153.321 6.658L 147.367 6.658L 143.623 18.332L 139.879 6.658L 133.925 6.658L 140.321 24L 146.925 24ZM 167.412 24L 167.412 19.424L 159.508 19.424L 159.508 17.526L 167.23 17.526L 167.23 12.95L 159.508 12.95L 159.508 11.234L 167.412 11.234L 167.412 6.658L 154.256 6.658L 154.256 24L 167.412 24Z"/>
<path id="path1_fill" d="M 17.4347 16.7318C 18.8804 16.169 20.157 15.1706 20.6762 13.7081C 21.2457 12.104 20.8735 10.3129 19.9402 8.91184C 19.0783 7.61793 18.9617 5.97042 18.199 4.61974C 17.338 3.09513 15.9195 1.91415 14.2815 1.22279C 12.297 0.38518 10.012 0.307809 7.92621 0.819849C 6.70458 -0.18568 5.00476 -0.291077 3.69855 0.64152C 2.42217 1.55282 2.16542 3.14123 2.5597 4.55475C 1.35809 6.31528 0.593285 8.54904 0.522165 10.6683C 0.446127 12.934 1.82458 14.9508 3.7531 16.1397C 2.9737 17.3952 2.48543 18.7674 2.36947 20.0538C 0.434136 20.7809 -0.528553 22.9858 0.296443 24.833C 1.12878 26.6966 3.47334 27.5411 5.35906 26.6335C 6.027 26.8263 6.766 26.9061 7.46302 26.8801L 7.67634 26.8721C 7.72439 26.8772 7.77289 26.8807 7.82222 26.8807L 19.6243 26.8807C 21.1628 26.8807 21.0979 24.9768 20.8923 23.9529C 20.6458 22.7256 19.938 21.5982 18.9072 20.8412C 18.715 19.5324 18.1958 18.0829 17.4347 16.7318ZM 14.6815 21.2598C 13.5559 21.4118 12.4371 21.6601 11.3576 22.0046C 10.796 22.1838 10.2416 22.3907 9.71342 22.6492C 9.56721 22.7207 9.24614 22.9708 9.08292 22.9568C 8.65788 22.9205 9.05449 22.5605 9.20721 22.4776C 10.2229 21.9258 11.3589 21.5728 12.4826 21.294C 13.6351 21.008 14.87 20.7447 16.0671 20.7743C 16.0097 19.7285 16.2601 18.6658 16.8105 17.7617C 17.4191 18.9919 17.8892 20.3575 17.9345 21.7309C 16.8828 21.0734 15.819 21.1062 14.6815 21.2598ZM 2.05025 10.4656C 2.11993 9.62386 2.42238 7.87581 3.3076 6.21414C 3.85869 7.07582 4.67193 7.83242 5.70016 8.11298C 6.73336 8.3949 7.87487 8.11733 8.69689 7.46084C 10.3862 6.11171 10.0153 3.73219 9.01528 2.09486C 11.578 1.68817 14.3311 2.29988 16.0914 4.24339C 16.9959 5.24196 17.3499 6.43814 17.7687 7.67481C 17.9836 8.30943 18.195 8.97513 18.5592 9.54742C 18.9505 10.1622 19.271 10.7641 19.3824 11.4888C 19.3324 11.4877 19.2826 11.4784 19.2354 11.46L 18.8645 11.3449C 18.3854 11.1579 18.0793 11.8707 18.3948 12.1761L 19.0142 12.7757C 19.1023 12.8611 19.2131 12.9095 19.3278 12.9249C 18.6301 15.674 14.9224 16.0393 12.5199 16.0394L 8.8112 16.0394C 5.60397 16.0393 1.75593 14.0222 2.05025 10.4656C 2.03829 10.6102 2.11993 9.62386 2.05025 10.4656ZM 14.1024 12.9872C 15.356 13.2448 16.4228 12.0976 16.9106 11.1192C 17.4598 10.0175 17.491 8.67315 16.7438 7.64584C 16.0927 6.75058 15.0055 6.41734 14.0164 6.99728C 13.0277 7.57698 12.2535 8.67458 11.9682 9.75096C 11.5729 11.2422 12.5609 12.6705 14.1024 12.9872ZM 15.5634 8.5588C 16.157 8.54109 16.659 9.1825 16.6848 9.99143C 16.7105 10.8004 16.2502 11.4705 15.6566 11.4882C 15.063 11.5059 14.5609 10.8645 14.5352 10.0556C 14.5094 9.24663 14.9697 8.57652 15.5634 8.5588Z"/>
</defs>
</svg>
