<svg width="314" height="328" viewBox="0 0 314 328" version="1.1" xmlns="http://www.w3.org/2000/svg" xmlns:xlink="http://www.w3.org/1999/xlink">
    <style>
        #panda_jar_shadow { filter: url(#panda_jar_filter0_d); }

        * {
        transform-box: fill-box;
        }

        <!--hand-->
        #panda_jar_left_hand {
        transform-origin: top;
        animation: panda_jar_hand 1s infinite alternate ease;
        }
        @keyframes panda_jar_hand {
        0%   { transform: rotate(0deg); }
        100%   { transform: rotate(-5deg); }
        }

        #panda_jar_right_hand {
        transform-origin: top;
        animation: panda_jar_hand_right 1s infinite alternate ease;
        }
        @keyframes panda_jar_hand_right {
        0%   { transform: rotate(0deg); }
        100%   { transform: rotate(5deg); }
        }

        <!--jar-->
        #jar {
        transform-origin: center;
        animation: jar 1s infinite alternate ease;
        }
        @keyframes jar {
        0%   { transform: translateY(0); }
        100%   { transform: translateY(-5px); }
        }
    </style>
<g id="Canvas" transform="translate(7180 -4122)">
<g id="Panda sitting4">
<g id="panda_jar_shadow">
<use xlink:href="#panda_jar_0_fill" transform="matrix(1 -6.93705e-18 -2.4829e-05 1 -7180 4347.1)" fill="#333333" fill-opacity="0.1"/>
</g>
<g id="ears">
<g id="left ear">
<use xlink:href="#panda_jar_1_fill" transform="translate(-7120.45 4122.25)" fill="#383D42"/>
</g>
<g id="right ear">
<use xlink:href="#panda_jar_2_fill" transform="translate(-6983.17 4122)" fill="#383D42"/>
</g>
</g>
<g id="body">
<g id="Ellipse">
<use xlink:href="#panda_jar_3_fill" transform="translate(-7113.32 4255.02)" fill="#FFFFFF"/>
</g>
<g id="Subtract">
<use xlink:href="#panda_jar_4_fill" transform="translate(-7126.35 4255.02)" fill="#E2E2E2"/>
</g>
<g id="Vector 2">
<use xlink:href="#panda_jar_5_fill" transform="translate(-7119.37 4286.64)" fill="#383D42"/>
</g>
</g>
<g id="head">
<g id="head">
<use xlink:href="#panda_jar_6_fill" transform="translate(-7126.04 4134.26)" fill="#FFFFFF"/>
</g>
<g id="Vector">
<use xlink:href="#panda_jar_7_fill" transform="translate(-7126.04 4139.41)" fill="#E2E2E2"/>
</g>
</g>
<g id="panda_jar_nose">
<g id="Vector">
<use xlink:href="#panda_jar_8_fill" transform="translate(-7035.78 4221.53)" fill="#2C2D32"/>
</g>
<g id="Vector">
<use xlink:href="#panda_jar_9_fill" transform="translate(-7031.5 4221.77)" fill="#364144"/>
</g>
<g id="Vector">
<use xlink:href="#panda_jar_10_fill" transform="translate(-7019.7 4224.2)" fill="#697175"/>
</g>
</g>
<g id="eyes">
<g id="panda_jar_left_eye">
<g id="Vector">
<use xlink:href="#panda_jar_11_fill" transform="translate(-7090.68 4183.85)" fill="#383D42"/>
</g>
<g id="Vector">
<use xlink:href="#panda_jar_12_fill" transform="translate(-7073 4199.21)" fill="#27272B"/>
</g>
<g id="Vector">
<use xlink:href="#panda_jar_13_fill" transform="translate(-7064.77 4211.23)" fill="#FFFFFF"/>
</g>
<g id="Vector">
<use xlink:href="#panda_jar_14_fill" transform="translate(-7058.06 4205.49)" fill="#FFFFFF"/>
</g>
</g>
<g id="panda_jar_right_eye">
<g id="Vector">
<use xlink:href="#panda_jar_15_fill" transform="translate(-7003.72 4183.85)" fill="#383D42"/>
</g>
<g id="Vector">
<use xlink:href="#panda_jar_16_fill" transform="translate(-6996.71 4199.21)" fill="#27272B"/>
</g>
<g id="Vector">
<use xlink:href="#panda_jar_17_fill" transform="translate(-6990.95 4211.23)" fill="#FFFFFF"/>
</g>
<g id="Vector">
<use xlink:href="#panda_jar_18_fill" transform="translate(-6984.24 4205.49)" fill="#FFFFFF"/>
</g>
</g>
</g>
<g id="panda_jar_mouth">
<use xlink:href="#panda_jar_19_fill" transform="translate(-7025.54 4257.81)" fill="#364144"/>
</g>
<g id="jar">
<g id="Union">
<use xlink:href="#panda_jar_20_fill" transform="matrix(8.45654e-17 1 -1 4.43373e-17 -6984.77 4318.48)" fill="#BEDDD5" fill-opacity="0.52"/>
</g>
<g id="Ellipse 2">
<use xlink:href="#panda_jar_21_fill" transform="matrix(8.45655e-17 1 -1 4.43373e-17 -6992.6 4384.87)" fill="#BEDDD5"/>
</g>
<g id="Ellipse 3">
<use xlink:href="#panda_jar_22_fill" transform="translate(-7050.86 4314.55)" fill="#9DC4BB" fill-opacity="0.83"/>
</g>
<g id="Ellipse 3.1">
<use xlink:href="#panda_jar_23_fill" transform="translate(-7048.96 4315.44)" fill="#C8E5DE" fill-opacity="0.63"/>
</g>
<g id="Ellipse 3.2">
<use xlink:href="#panda_jar_24_fill" transform="translate(-7044.82 4318.45)" fill="#D8E5E2"/>
</g>
<g id="Vector">
<use xlink:href="#panda_jar_25_fill" transform="matrix(-0.977766 -0.2097 -0.209806 0.977743 -6985.7 4330.03)" fill="#FFFFFF"/>
</g>
</g>
<g id="panda_jar_left_hand">
<use xlink:href="#panda_jar_26_fill" transform="matrix(0.998842 0.0481104 0.0543576 -0.998521 -7129.51 4374.52)" fill="#383D42"/>
</g>
<g id="panda_jar_right_hand">
<use xlink:href="#panda_jar_27_fill" transform="matrix(-0.996867 0.0790963 -0.0829683 -0.996552 -6913.84 4373.93)" fill="#383D42"/>
</g>
<g id="right leg">
<g id="Ellipse">
<use xlink:href="#panda_jar_28_fill" transform="matrix(-0.93884 0.341914 0.347723 0.938479 -7078.29 4346.31)" fill="#383D42"/>
</g>
<g id="Ellipse 2">
<use xlink:href="#panda_jar_29_fill" transform="matrix(-0.93884 0.341914 0.347723 0.938479 -7090.03 4376.09)" fill="#5B6167"/>
</g>
<g id="Ellipse 2.1">
<use xlink:href="#panda_jar_30_fill" transform="matrix(-0.940958 0.336043 0.341852 0.940633 -7108.02 4387.1)" fill="#999DA1"/>
</g>
<g id="Ellipse">
<use xlink:href="#panda_jar_31_fill" transform="matrix(-0.983252 -0.192926 -0.182712 0.981138 -7083.71 4369.86)" fill="#5B6167"/>
</g>
<g id="Ellipse">
<use xlink:href="#panda_jar_32_fill" transform="matrix(-0.623526 0.77823 0.779803 0.630436 -7131.25 4382.75)" fill="#5B6167"/>
</g>
<g id="Ellipse">
<use xlink:href="#panda_jar_33_fill" transform="matrix(-0.997947 0.0741578 0.0829177 0.995861 -7096.94 4365.7)" fill="#5B6167"/>
</g>
<g id="Ellipse">
<use xlink:href="#panda_jar_34_fill" transform="matrix(-0.93884 0.341914 0.347723 0.938479 -7110.68 4367.18)" fill="#5B6167"/>
</g>
<g id="Ellipse">
<use xlink:href="#panda_jar_35_fill" transform="matrix(-0.809099 0.58404 0.587031 0.812162 -7123.15 4372.75)" fill="#5B6167"/>
</g>
</g>
<g id="panda_jar_left leg">
<g id="Ellipse">
<use xlink:href="#panda_jar_28_fill" transform="matrix(0.93884 0.341914 -0.347723 0.938479 -6963.51 4346.31)" fill="#383D42"/>
</g>
<g id="Ellipse 2">
<use xlink:href="#panda_jar_36_fill" transform="matrix(0.93884 0.341914 -0.347723 0.938479 -6951.78 4376.09)" fill="#5B6167"/>
</g>
<g id="Ellipse 2.2">
<use xlink:href="#panda_jar_37_fill" transform="matrix(-0.995471 0.0858164 0.0913948 0.996645 -6940.52 4384.5)" fill="#999DA1"/>
</g>
<g id="Ellipse">
<use xlink:href="#panda_jar_38_fill" transform="matrix(0.983251 -0.192926 0.182712 0.981141 -6958.1 4369.86)" fill="#5B6167"/>
</g>
<g id="Ellipse">
<use xlink:href="#panda_jar_39_fill" transform="matrix(0.623527 0.778232 -0.779801 0.630435 -6910.56 4382.75)" fill="#5B6167"/>
</g>
<g id="Ellipse">
<use xlink:href="#panda_jar_40_fill" transform="matrix(0.997947 0.074158 -0.0829176 0.995863 -6944.87 4365.7)" fill="#5B6167"/>
</g>
<g id="Ellipse">
<use xlink:href="#panda_jar_34_fill" transform="matrix(0.93884 0.341914 -0.347723 0.938479 -6931.13 4367.18)" fill="#5B6167"/>
</g>
<g id="Ellipse">
<use xlink:href="#panda_jar_41_fill" transform="matrix(0.809099 0.584041 -0.587029 0.812161 -6918.65 4372.75)" fill="#5B6167"/>
</g>
</g>
</g>
</g>
<defs>
    <filter id="panda_jar_filter0_d" filterUnits="userSpaceOnUse" x="-7190" y="4347.1" width="390" height="110" color-interpolation-filters="sRGB">
        <feGaussianBlur stdDeviation="3"/>
    </filter>
<path id="panda_jar_0_fill" d="M 313.997 51.4479C 313.997 79.8618 243.707 102.896 156.999 102.896C 70.2907 102.896 0 79.8618 0 51.4479C 0 23.034 70.2907 0 156.999 0C 243.707 0 313.997 23.034 313.997 51.4479Z"/>
<path id="panda_jar_1_fill" d="M 30.355 56.875C 47.1196 56.875 60.71 44.1431 60.71 28.4375C 60.71 12.7319 47.1196 0 30.355 0C 13.5904 0 0 12.7319 0 28.4375C 0 44.1431 13.5904 56.875 30.355 56.875Z"/>
<path id="panda_jar_2_fill" d="M 29.8274 58.1128C 46.3006 58.1128 59.6547 45.1038 59.6547 29.0564C 59.6547 13.009 46.3006 0 29.8274 0C 13.3542 0 0 13.009 0 29.0564C 0 45.1038 13.3542 58.1128 29.8274 58.1128Z"/>
<path id="panda_jar_3_fill" d="M 194.46 103.811C 194.46 161.144 150.929 180.455 97.2299 180.455C 43.5313 180.455 0 161.144 0 103.811C 0 46.4777 43.5313 0 97.2299 0C 150.929 0 194.46 46.4777 194.46 103.811Z"/>
<path id="panda_jar_4_fill" fill-rule="evenodd" d="M 106.78 180.437C 61.4927 175.137 27.9131 153.824 27.9131 104.985C 27.9131 51.0918 68.8022 6.76807 121.192 1.46191C 115.519 0.500488 109.689 0 103.743 0C 46.4473 0 0 46.4775 0 103.811C 0 161.144 46.4473 180.456 103.743 180.456C 104.759 180.456 105.771 180.449 106.78 180.437Z"/>
<path id="panda_jar_5_fill" d="M 0.000412907 40.928C -0.075927 38.4426 10.4466 11.1546 20.4699 1.86037C 78.6813 19.5695 112 18.1891 173.374 0C 183.609 10.232 191.669 33.0215 195.391 40.928C 123.352 14.4243 74.224 12.8871 0.000412907 40.928Z"/>
<path id="panda_jar_6_fill" d="M 207.644 89.5083C 214.105 150.988 164.174 169.314 105.488 168.81C 17.3415 168.055 -6.7681 140.299 1.53403 83.1411C 8.544 34.8886 48.9132 0 105.488 0C 169.009 0.0419587 202.788 43.1335 207.644 89.5083Z"/>
<path id="panda_jar_7_fill" d="M 72.5672 148.161C 47.9108 140.719 22.8494 117.794 21.8587 91.8846C 20.0713 43.1706 50.0365 20.4653 69.6989 0C 32.3447 11.3813 6.95377 40.6789 1.53746 77.9802C -6.77543 135.138 17.3341 162.947 105.492 163.649C 163.919 164.142 213.646 145.985 207.723 85.1446C 207.723 168.16 97.2236 155.602 72.5672 148.161Z"/>
<path id="panda_jar_8_fill" d="M 26.9825 5.06917C 26.9825 9.44488 19.8658 15.8131 13.2167 15.8131C 6.56771 15.8131 7.44633e-06 9.2593 7.44633e-06 4.88359C 7.44633e-06 0.507888 6.62871 -7.15371e-06 13.2167 -7.15371e-06C 19.8048 -7.15371e-06 26.9825 0.693467 26.9825 5.06917Z"/>
<path id="panda_jar_9_fill" d="M 22.4431 5.14839C 22.189 8.72318 15.7914 14.8168 10.6165 14.768C 5.20781 14.7192 -0.485555 8.90768 0.0329479 4.75662C 0.55145 0.605562 5.11632 0 10.6267 0C 16.137 0 22.738 0.938722 22.4431 5.14839Z"/>
<path id="panda_jar_10_fill" d="M 3.54818 6.17287C 5.50779 6.17287 7.09637 4.79103 7.09637 3.08644C 7.09637 1.38184 5.50779 -3.27878e-06 3.54818 -3.27878e-06C 1.58857 -3.27878e-06 0 1.38184 0 3.08644C 0 4.79103 1.58857 6.17287 3.54818 6.17287Z"/>
<path id="panda_jar_11_fill" d="M 49.3605 21.9129C 52.4079 34.3747 48.3806 44.2664 24.1957 47.1406C 3.39192 49.6161 0 36.588 0 23.5703C -6.1209e-14 17.3191 2.54917 11.3239 7.08674 6.9036C 11.6243 2.48331 17.7786 -5.96268e-14 24.1957 0C 37.5588 -5.96268e-14 46.2701 9.24141 49.3605 21.9129Z"/>
<path id="panda_jar_12_fill" d="M 12.5608 24.1847C 19.4979 24.1847 25.1216 18.7708 25.1216 12.0924C 25.1216 5.41394 19.4979 0 12.5608 0C 5.62366 0 0 5.41394 0 12.0924C 0 18.7708 5.62366 24.1847 12.5608 24.1847Z"/>
<path id="panda_jar_13_fill" d="M 3.31655 6.46163C 5.14822 6.46163 6.63309 5.01515 6.63309 3.23081C 6.63309 1.44648 5.14822 3.20119e-06 3.31655 3.20119e-06C 1.48487 3.20119e-06 0 1.44648 0 3.23081C 0 5.01515 1.48487 6.46163 3.31655 6.46163Z"/>
<path id="panda_jar_14_fill" d="M 6.33158 12.3358C 9.82842 12.3358 12.6632 9.57438 12.6632 6.16793C 12.6632 2.76148 9.82842 -3.52131e-06 6.33158 -3.52131e-06C 2.83475 -3.52131e-06 0 2.76148 0 6.16793C 0 9.57438 2.83475 12.3358 6.33158 12.3358Z"/>
<path id="panda_jar_15_fill" d="M 0.88208 21.9129C -2.16526 34.3747 1.862 44.2664 26.0469 47.1406C 46.8507 49.6161 50.2426 36.588 50.2426 23.5703C 50.2426 17.3191 47.6934 11.3239 43.1559 6.9036C 38.6183 2.48331 32.464 -5.96269e-14 26.0469 1.07241e-27C 12.6408 -5.96269e-14 4.02634 9.24141 0.88208 21.9129Z"/>
<path id="panda_jar_16_fill" d="M 12.5608 24.1847C 19.4979 24.1847 25.1216 18.7708 25.1216 12.0924C 25.1216 5.41394 19.4979 2.3591e-06 12.5608 2.3591e-06C 5.62366 2.3591e-06 3.50069e-06 5.41394 3.50069e-06 12.0924C 3.50069e-06 18.7708 5.62366 24.1847 12.5608 24.1847Z"/>
<path id="panda_jar_17_fill" d="M 3.31655 6.46163C 5.14823 6.46163 6.63308 5.01515 6.63308 3.23081C 6.63308 1.44648 5.14823 3.20119e-06 3.31655 3.20119e-06C 1.48488 3.20119e-06 -2.30029e-06 1.44648 -2.30029e-06 3.23081C -2.30029e-06 5.01515 1.48488 6.46163 3.31655 6.46163Z"/>
<path id="panda_jar_18_fill" d="M 6.33159 12.3358C 9.82843 12.3358 12.6632 9.57438 12.6632 6.16793C 12.6632 2.76148 9.82843 -3.52131e-06 6.33159 -3.52131e-06C 2.83475 -3.52131e-06 -2.62891e-06 2.76148 -2.62891e-06 6.16793C -2.62891e-06 9.57438 2.83475 12.3358 6.33159 12.3358Z"/>
<path id="panda_jar_19_fill" d="M 2.87505 5.60149C 4.4629 5.60149 5.75012 4.34754 5.75012 2.80073C 5.75012 1.25393 4.4629 -5.76215e-06 2.87505 -5.76215e-06C 1.2872 -5.76215e-06 0 1.25393 0 2.80073C 0 4.34754 1.2872 5.60149 2.87505 5.60149Z"/>
<path id="panda_jar_20_fill" fill-rule="evenodd" d="M 20 0C 8.9541 -9.34101e-16 4.89745e-16 8.9541 0 20L 0 51.7959C -4.89745e-16 62.8418 8.9541 71.7959 20 71.7959L 68.4053 71.7959L 68.6816 71.7959L 68.6816 71.79C 76.7603 71.4346 82.0137 55.5015 82.0137 35.8979C 82.0137 16.2949 76.7603 0.361328 68.6816 0.00585938L 68.6816 0L 68.4053 0L 20 0Z"/>
<path id="panda_jar_21_fill" d="M 13.0228 28.0658C 13.0228 43.5661 10.1075 56.1315 6.51138 56.1315C 2.91525 56.1315 0 43.5661 0 28.0658C 0 12.5655 2.91525 0 6.51138 0C 10.1075 0 13.0228 12.5655 13.0228 28.0658Z"/>
<path id="panda_jar_22_fill" d="M 60.3848 7.57417C 60.3848 11.7573 46.8672 15.1483 30.1924 15.1483C 13.5176 15.1483 0 11.7573 0 7.57417C 0 3.39107 13.5176 0 30.1924 0C 46.8672 0 60.3848 3.39107 60.3848 7.57417Z"/>
<path id="panda_jar_23_fill" d="M 56.5811 6.68309C 56.5811 10.3741 43.915 13.3662 28.2905 13.3662C 12.6661 13.3662 0 10.3741 0 6.68309C 0 2.99212 12.6661 0 28.2905 0C 43.915 0 56.5811 2.99212 56.5811 6.68309Z"/>
<path id="panda_jar_24_fill" d="M 48.2992 4.55797C 44.3831 5.86025 37.4871 7.81366 24.1496 7.81366C 10.8121 7.81366 6.52692 6.51139 0 4.55797C 5.22154 0.651139 16.3173 -6.9473e-10 24.1496 5.55929e-19C 31.9819 6.9473e-10 44.3831 1.95342 48.2992 4.55797Z"/>
<path id="panda_jar_25_fill" d="M 0.250231 11.3939C 1.1406 6.0783 2.55759 2.579 6.33478 0.43758C 6.86103 0.139228 7.49795 0.136145 8.05418 0.373969C 9.6189 1.04298 9.85758 3.32518 8.81471 4.66992C 6.24617 7.98195 5.21039 12.4124 4.80859 14.9398C 4.67893 15.7554 3.66907 16.1604 3.04144 15.6237L 1.25154 14.0931C 0.472037 13.4266 0.0807946 12.4055 0.250231 11.3939Z"/>
<path id="panda_jar_26_fill" d="M 54.249 45.5449C 82.9204 21.8458 92.1045 9.34867 80.6093 3.39056C 58.5518 -8.03656 15.1486 11.6081 4.653 29.8048C -5.84263 48.0015 1.75418 78.1477 24.0449 83.8724C 46.3356 89.5971 34.1574 62.1409 54.249 45.5449Z"/>
<path id="panda_jar_27_fill" d="M 58.1852 44.7677C 88.9369 20.596 90.5809 9.75722 78.2516 3.68028C 54.5936 -7.97474 16.2478 10.1541 4.99061 28.7137C -6.26656 47.2733 1.88146 78.0208 25.7895 83.8596C 49.6976 89.6985 36.6358 61.6947 58.1852 44.7677Z"/>
<path id="panda_jar_28_fill" d="M 84.2268 31.554C 84.2268 57.3072 65.372 78.1844 42.1134 78.1844C 18.8548 78.1844 0 57.3072 0 31.554C 0 5.80067 18.388 3.07279e-11 41.6466 3.07279e-11C 64.9052 3.07279e-11 84.2268 5.80067 84.2268 31.554Z"/>
<path id="panda_jar_29_fill" d="M 40.2385 20.246C 40.2385 31.4276 31.8109 38.3858 20.6993 38.3858C 9.58779 38.3858 0 31.4276 0 20.246C 0 9.06446 9.00769 0 20.1192 0C 31.2308 0 40.2385 9.06446 40.2385 20.246Z"/>
<path id="panda_jar_30_fill" d="M 17.17 16.0801C 17.17 24.9609 11.2949 30.4874 3.54882 30.4874C -4.19729 30.4874 4.40196 25.6413 4.40196 16.7605C 4.40196 7.87973 -4.60169 0 3.14442 0C 10.8905 0 17.17 7.19931 17.17 16.0801Z"/>
<path id="panda_jar_31_fill" d="M 8.63763 5.77457C 8.63763 8.96378 6.70403 11.5491 4.31881 11.5491C 1.9336 11.5491 0 8.96378 0 5.77457C 0 2.58536 1.9336 0 4.31881 0C 6.70403 0 8.63763 2.58536 8.63763 5.77457Z"/>
<path id="panda_jar_32_fill" d="M 8.63633 5.77542C 8.63633 8.9651 6.70302 11.5508 4.31817 11.5508C 1.93331 11.5508 0 8.9651 0 5.77542C 0 2.58574 1.93331 0 4.31817 0C 6.70302 0 8.63633 2.58574 8.63633 5.77542Z"/>
<path id="panda_jar_33_fill" d="M 8.62689 5.7817C 8.62689 8.97485 6.6957 11.5634 4.31345 11.5634C 1.9312 11.5634 0 8.97485 0 5.7817C 0 2.58856 1.9312 0 4.31345 0C 6.6957 0 8.62689 2.58856 8.62689 5.7817Z"/>
<path id="panda_jar_34_fill" d="M 8.62253 5.78458C 8.62253 8.97932 6.69231 11.5692 4.31126 11.5692C 1.93022 11.5692 0 8.97932 0 5.78458C 0 2.58985 1.93022 0 4.31126 0C 6.69231 0 8.62253 2.58985 8.62253 5.78458Z"/>
<path id="panda_jar_35_fill" d="M 8.62612 5.7822C 8.62612 8.97562 6.6951 11.5644 4.31306 11.5644C 1.93102 11.5644 0 8.97562 0 5.7822C 0 2.58878 1.93102 0 4.31306 0C 6.6951 0 8.62612 2.58878 8.62612 5.7822Z"/>
<path id="panda_jar_36_fill" d="M 40.2385 20.246C 40.2385 31.4276 29.9243 39.0732 18.8127 39.0732C 7.70119 39.0732 0 31.4276 0 20.246C 0 9.06446 9.00769 0 20.1192 0C 31.2308 0 40.2385 9.06446 40.2385 20.246Z"/>
<path id="panda_jar_37_fill" d="M 18.5229 17.8007C 18.5229 26.6177 10.267 33.6551 2.52067 33.6551C -5.22566 33.6551 7.35432 23.8564 7.35432 15.0394C 7.35432 6.22242 -4.57665 0 3.16968 0C 10.916 0 18.5229 8.9837 18.5229 17.8007Z"/>
<path id="panda_jar_38_fill" d="M 8.63763 5.77456C 8.63763 8.96376 6.70403 11.5491 4.31882 11.5491C 1.9336 11.5491 0 8.96376 0 5.77456C 0 2.58536 1.9336 0 4.31882 0C 6.70403 0 8.63763 2.58536 8.63763 5.77456Z"/>
<path id="panda_jar_39_fill" d="M 8.63632 5.77543C 8.63632 8.96511 6.70301 11.5509 4.31816 11.5509C 1.93331 11.5509 0 8.96511 0 5.77543C 0 2.58575 1.93331 0 4.31816 0C 6.70301 0 8.63632 2.58575 8.63632 5.77543Z"/>
<path id="panda_jar_40_fill" d="M 8.62689 5.78169C 8.62689 8.97483 6.6957 11.5634 4.31345 11.5634C 1.9312 11.5634 0 8.97483 0 5.78169C 0 2.58855 1.9312 0 4.31345 0C 6.6957 0 8.62689 2.58855 8.62689 5.78169Z"/>
<path id="panda_jar_41_fill" d="M 8.62612 5.78221C 8.62612 8.97563 6.6951 11.5644 4.31306 11.5644C 1.93102 11.5644 0 8.97563 0 5.78221C 0 2.58878 1.93102 0 4.31306 0C 6.6951 0 8.62612 2.58878 8.62612 5.78221Z"/>
</defs>
</svg>
