<svg width="454" height="410" viewBox="0 0 454 410" version="1.1" xmlns="http://www.w3.org/2000/svg" xmlns:xlink="http://www.w3.org/1999/xlink">
    <style>
        #panda_book_shadow { filter: url(#panda_book_filter0_d); }
        #panda_book_shadow_left, #panda_book_shadow_right { filter: url(#panda_book_filter1_d); }

        * {
        transform-box: fill-box;
        }

        <!--pandaCloud-->
        #panda_book_31_fill {
        animation: pandaCloudSmall 8s infinite ease;
        }
        @keyframes pandaCloudSmall {
        0%   { opacity: 0; }
        20% { opacity: 1; }
        50% { opacity: 1; }
        100%   { opacity: 0; }
        }

        #panda_book_30_fill {
        opacity: 0;
        animation: pandaCloudBig 8s infinite ease;
        }
        @keyframes pandaCloudBig {
        0%   { opacity: 0; }
        50% { opacity: 1; }
        100%   { opacity: 0; }
        }

        #panda_book_panda {
        opacity: 0;
        animation: pandaCloudPanda 8s infinite ease;
        }
        @keyframes pandaCloudPanda {
        0%   { opacity: 0; }
        20% { opacity: 0; }
        50% { opacity: 0.5; }
        100%   { opacity: 0; }
        }

        <!--hand-->
        #panda_book_left_hand {
        transform-origin: bottom;
        animation: hand_left_4 4s infinite alternate ease;
        }
        @keyframes hand_left_4 {
        0%   { transform: rotate(40deg); }
        40%   { transform: rotate(0deg); }
        100%   { transform: rotate(0deg); }
        }

        #panda_book_right_hand {
        transform-origin: bottom;
        animation: hand_right_4 4s infinite alternate ease;
        }
        @keyframes hand_right_4 {
        0%   { transform: rotate(-40deg); }
        40%   { transform: rotate(0deg); }
        100%   { transform: rotate(0deg); }
        }

        <!--eyes-->
        #panda_book_23_fill, #panda_book_19_fill {
        animation: eyes 0.3s infinite linear;
        }
        @keyframes eyes {
        0%   { transform: translate(1px, 0px); }
        25%   { transform: translate(0px, 1px); }
        50%   { transform: translate(-1px, 0 px); }
        100%   { transform: translate(0px, -1px); }
        }

        <!--leaf of book-->
        #panda_book_28_fill {
        animation: leafBook 2s infinite alternate ease;
        }
        @keyframes leafBook {
        0%   { transform: rotateY(0); }
        25%   { transform: rotateY(0); }
        75%   { transform: rotateY(-180deg); }
        100%   { transform: rotateY(-180deg); }
        }
    </style>
<g id="Canvas" transform="translate(6646 -3005)">
<g id="Panda with book">
<g id="panda_book_shadow">
<use xlink:href="#panda_book_0_fill" transform="matrix(-1 0 0 1 -6276 3326)" fill="#333333" fill-opacity="0.05"/>
</g>
<g id="body">
<g id="body">
<use xlink:href="#panda_book_1_fill" transform="matrix(-1 0 0 1 -6421.65 3189.23)" fill="#E2E2E2"/>
</g>
<g id="body">
<use xlink:href="#panda_book_2_fill" transform="translate(-6584 3202)" fill="#FFFFFF"/>
</g>
</g>
<g id="right ear">
<use xlink:href="#panda_book_3_fill" transform="matrix(-1 0 0 1 -6549.77 3050.52)" fill="#383D42"/>
</g>
<g id="right ear">
<use xlink:href="#panda_book_3_fill" transform="matrix(-1 0 0 1 -6417.05 3050.52)" fill="#383D42"/>
</g>
<g id="head">
<use xlink:href="#panda_book_4_fill" transform="matrix(-1 0 0 1 -6406.31 3065.54)" fill="#FFFFFF"/>
</g>
<g id="Vector">
<use xlink:href="#panda_book_5_fill" transform="translate(-6617.3 3070.77)" fill="#E2E2E2"/>
</g>
<g id="nose">
<g id="Vector">
<use xlink:href="#panda_book_6_fill" transform="matrix(-1 0 0 1 -6484 3149)" fill="#2C2D32"/>
</g>
<g id="Vector">
<use xlink:href="#panda_book_7_fill" transform="matrix(-1 0 0 1 -6487.81 3149.23)" fill="#364144"/>
</g>
<g id="Vector">
<use xlink:href="#panda_book_8_fill" transform="matrix(-1 0 0 1 -6498.3 3151.53)" fill="#697175"/>
</g>
</g>
<g id="left_leg">
<use xlink:href="#panda_book_9_fill" transform="matrix(-1 0 0 1 -6436.47 3326.35)" fill="#383D42"/>
</g>
<g id="right_leg">
<use xlink:href="#panda_book_10_fill" transform="matrix(-1 0 0 1 -6524.94 3323.03)" fill="#383D42"/>
</g>
<g id="shadows">
<g id="panda_book_shadow_right" opacity="0.3">
<use xlink:href="#panda_book_11_fill" transform="matrix(-1 0 0 1 -6450.08 3354.16)" fill="#22252B" fill-opacity="0.5"/>
</g>
<g id="panda_book_shadow_left" opacity="0.3">
<use xlink:href="#panda_book_12_fill" transform="matrix(-1 0 0 1 -6524.5 3354.16)" fill="#22252B" fill-opacity="0.5"/>
</g>
</g>
<g id="mouth">
<use xlink:href="#panda_book_13_fill" transform="matrix(-1 0 0 1 -6492 3184)" fill="#364144"/>
</g>
<g id="panda_book_right_hand">
<use xlink:href="#panda_book_14_fill" transform="matrix(0.99814 0.0609573 -0.0608545 0.998147 -6595.61 3178.13)" fill="#383D42"/>
</g>
<g id="panda_book_left_hand">
<use xlink:href="#panda_book_15_fill" transform="matrix(-1 0 0 1 -6416.12 3176.75)" fill="#383D42"/>
</g>
<g id="eyes">
<g id="Vector">
<use xlink:href="#panda_book_16_fill" transform="translate(-6566.11 3110.43)" fill="#383D42"/>
</g>
<g id="Vector">
<use xlink:href="#panda_book_17_fill" transform="translate(-6548 3125)" fill="#27272B"/>
</g>
<g id="Vector">
<use xlink:href="#panda_book_18_fill" transform="translate(-6539.97 3138.47)" fill="#FFFFFF"/>
</g>
<g id="Vector">
<use xlink:href="#panda_book_19_fill" transform="translate(-6534.17 3129.77)" fill="#FFFFFF"/>
</g>
<g id="Vector">
<use xlink:href="#panda_book_20_fill" transform="translate(-6478.37 3110.43)" fill="#383D42"/>
</g>
<g id="Vector">
<use xlink:href="#panda_book_21_fill" transform="translate(-6472 3125)" fill="#27272B"/>
</g>
<g id="Vector">
<use xlink:href="#panda_book_22_fill" transform="translate(-6466.51 3138.47)" fill="#FFFFFF"/>
</g>
<g id="Vector">
<use xlink:href="#panda_book_23_fill" transform="translate(-6460.71 3129.77)" fill="#FFFFFF"/>
</g>
</g>
<g id="book">
<g id="Group">
<g id="Rectangle 2.1">
<use xlink:href="#panda_book_24_fill" transform="matrix(0.980841 0.194811 -0.194568 0.980889 -6426.16 3331.37)" fill="#E26C8A"/>
</g>
<g id="Rectangle">
<use xlink:href="#panda_book_25_fill" transform="matrix(0.979269 0.202577 -0.202295 0.979322 -6372.09 3342.18)" fill="#BF4765"/>
</g>
<g id="Rectangle 2">
<use xlink:href="#panda_book_26_fill" transform="matrix(0.980841 0.194811 -0.194568 0.980889 -6423.6 3333.29)" fill="#E8DFDF"/>
</g>
<g id="Union">
<use xlink:href="#panda_book_27_fill" transform="matrix(0.980841 0.194811 -0.194568 0.980889 -6420.36 3325.93)" fill="#FCF8ED"/>
</g>
<g id="Rectangle">
<use xlink:href="#panda_book_28_fill" transform="matrix(0.980841 0.194811 -0.194568 0.980889 -6366.33 3336.63)" fill="#FFFFFF"/>
</g>
<g id="Line">
<use xlink:href="#panda_book_29_stroke" transform="matrix(-0.194568 0.980889 -0.980841 -0.194811 -6368.01 3344.57)" fill="#E8DFDF"/>
</g>
</g>
</g>
<g id="thoughts">
<g id="Ellipse 2">
<use xlink:href="#panda_book_30_fill" transform="translate(-6349.55 3005)" fill="#FFFFFF"/>
</g>
<g id="Ellipse 2.1">
<use xlink:href="#panda_book_31_fill" transform="translate(-6387.25 3108.49)" fill="#FFFFFF"/>
</g>
<g id="panda_book_panda" opacity="0.4">
<g id="body">
<use xlink:href="#panda_book_33_fill" transform="translate(-6292.39 3071.14)" fill="#E2E2E2"/>
</g>
<g id="body">
<use xlink:href="#panda_book_34_fill" transform="translate(-6283.42 3072.99)" fill="#FFFFFF"/>
</g>
<g id="left ear">
<use xlink:href="#panda_book_35_fill" transform="translate(-6294.93 3035.05)" fill="#2A2F35"/>
</g>
<g id="left ear">
<use xlink:href="#panda_book_36_fill" transform="translate(-6291.8 3039.67)" fill="#2F343B"/>
</g>
<g id="right ear">
<use xlink:href="#panda_book_37_fill" transform="translate(-6260.27 3034.98)" fill="#2A2F35"/>
</g>
<g id="left ear">
<use xlink:href="#panda_book_36_fill" transform="matrix(-1 0 0 1 -6247.78 3039.67)" fill="#2F343B"/>
</g>
<g id="head">
<use xlink:href="#panda_book_38_fill" transform="translate(-6296.23 3039.32)" fill="#FFFFFF"/>
</g>
<g id="Vector">
<use xlink:href="#panda_book_39_fill" transform="translate(-6296.23 3040.66)" fill="#E2E2E2"/>
</g>
<g id="Vector">
<use xlink:href="#panda_book_40_fill" transform="translate(-6286.81 3051.63)" fill="#2A2F35" fill-opacity="0.8"/>
</g>
<g id="Vector">
<use xlink:href="#panda_book_41_fill" transform="translate(-6281.92 3056)" fill="#030E12"/>
</g>
<g id="Vector">
<use xlink:href="#panda_book_42_fill" transform="translate(-6279.62 3058.63)" fill="#E8E8EA"/>
</g>
<g id="Vector">
<use xlink:href="#panda_book_43_fill" transform="translate(-6282.44 3056.59)" fill="#E8E8EA"/>
</g>
<g id="Vector">
<use xlink:href="#panda_book_44_fill" transform="translate(-6273.33 3061.28)" fill="#2C2D32"/>
</g>
<g id="Vector">
<use xlink:href="#panda_book_45_fill" transform="translate(-6272.2 3061.34)" fill="#364144"/>
</g>
<g id="Vector">
<use xlink:href="#panda_book_46_fill" transform="translate(-6269.02 3062.02)" fill="#697175"/>
</g>
<g id="Vector">
<use xlink:href="#panda_book_47_fill" transform="translate(-6265.32 3051.63)" fill="#2A2F35" fill-opacity="0.8"/>
</g>
<g id="Vector">
<use xlink:href="#panda_book_48_fill" transform="translate(-6263.47 3056)" fill="#030E12"/>
</g>
<g id="Vector">
<use xlink:href="#panda_book_49_fill" transform="translate(-6261.49 3058.63)" fill="#E8E8EA"/>
</g>
<g id="Vector">
<use xlink:href="#panda_book_50_fill" transform="translate(-6260.2 3056.59)" fill="#E8E8EA"/>
</g>
<g id="Vector">
<use xlink:href="#panda_book_51_fill" transform="translate(-6288.66 3105.9)" fill="#2A2F35"/>
</g>
<g id="Vector">
<use xlink:href="#panda_book_52_fill" transform="translate(-6266.49 3105.04)" fill="#2A2F35"/>
</g>
<g id="Vector">
<use xlink:href="#panda_book_53_fill" transform="matrix(0.948432 -0.316979 0.31661 0.948556 -6308.96 3068.08)" fill="#2A2F35"/>
</g>
<g id="Vector">
<use xlink:href="#panda_book_54_fill" transform="matrix(-0.923617 -0.383317 0.388174 -0.921586 -6247.39 3103.35)" fill="#2A2F35"/>
</g>
<g id="Vector">
<use xlink:href="#panda_book_55_fill" transform="matrix(0.948433 -0.316978 0.316611 0.948555 -6305.93 3069.53)" fill="#697175"/>
</g>
<g id="Vector">
<use xlink:href="#panda_book_56_fill" transform="matrix(0.948432 -0.316981 0.316608 0.948557 -6304.49 3068.11)" fill="#697175"/>
</g>
<g id="Vector">
<use xlink:href="#panda_book_57_fill" transform="matrix(0.948431 -0.316983 0.316606 0.948557 -6302.69 3067.51)" fill="#697175"/>
</g>
<g id="Vector">
<use xlink:href="#panda_book_58_fill" transform="matrix(0.948433 -0.316979 0.31661 0.948556 -6305.38 3071.18)" fill="#697175"/>
</g>
<g id="Vector">
<use xlink:href="#panda_book_59_fill" transform="matrix(0.948432 -0.316981 0.316607 0.948557 -6300.87 3067.87)" fill="#697175"/>
</g>
<g id="Vector">
<use xlink:href="#panda_book_60_fill" transform="translate(-6269.13 3069.69)" fill="#22252B"/>
</g>
</g>
</g>
</g>
</g>
<defs>
<filter id="panda_book_filter0_d" filterUnits="userSpaceOnUse" x="-6656" y="3316" width="390" height="109" color-interpolation-filters="sRGB">
    <feGaussianBlur stdDeviation="3"/>
</filter>
<filter id="panda_book_filter1_d" filterUnits="userSpaceOnUse" x="-6583" y="3344" width="143" height="34" color-interpolation-filters="sRGB">
    <feGaussianBlur stdDeviation="3"/>
</filter>
<path id="panda_book_0_fill" d="M 370 44.5C 370 69.0767 287.173 89 185 89C 82.8273 89 0 69.0767 0 44.5C 0 19.9233 82.8273 0 185 0C 287.173 0 370 19.9233 370 44.5Z"/>
<path id="panda_book_1_fill" d="M 179.092 88.3853C 179.092 118.769 152.493 173.161 125.32 172.896C 110.946 172.758 109.503 144.768 91.2573 143.116C 69.3556 141.136 69.3556 175.183 51.1204 172.419C 26.0402 168.649 0.00542436 116.418 0.00542436 88.3853C -0.124917 76.8244 2.09492 65.3532 6.53643 54.6356C 10.9779 43.9179 17.5529 34.1669 25.8807 25.9468C 34.2086 17.7267 44.1238 11.2008 55.0524 6.74706C 65.9811 2.29328 77.7062 0 89.5488 0C 101.391 0 113.117 2.29328 124.045 6.74706C 134.974 11.2008 144.889 17.7267 153.217 25.9468C 161.545 34.1669 168.12 43.9179 172.561 54.6356C 177.003 65.3532 179.223 76.8244 179.092 88.3853Z"/>
<path id="panda_book_2_fill" d="M 160.879 79.6492C 156.647 101.738 137.5 124 112.5 128C 90 131.6 93.6135 120.5 75 120.5C 56.3865 120.5 62.0153 140.197 22.3643 126.887C 2.83476 120.332 -6.6989 72.1988 5.29197 46.6517C 19.4373 16.5359 76.6931 -8.33005 113.232 2.64116C 149.77 13.6124 166.69 49.5753 160.879 79.6492Z"/>
<path id="panda_book_3_fill" d="M 30.0485 58.6703C 46.6438 58.6703 60.0969 45.5365 60.0969 29.3352C 60.0969 13.1338 46.6438 0 30.0485 0C 13.4532 0 0 13.1338 0 29.3352C 0 45.5365 13.4532 58.6703 30.0485 58.6703Z"/>
<path id="panda_book_4_fill" d="M 209.184 90.3671C 215.692 152.437 165.391 170.938 106.27 170.43C 17.47 169.667 -6.81828 141.645 1.5454 83.9388C 8.60733 35.2234 49.2758 -9.04934e-06 106.27 -9.04934e-06C 170.262 0.0423522 204.291 43.5474 209.184 90.3671Z"/>
<path id="panda_book_5_fill" d="M 50.2622 139.278C 32.1246 127.989 19.8463 114.174 18.8483 88.0159C 17.0476 38.8344 50.269 20.6617 70.0771 0C 38.6632 6.28685 7.00532 41.0692 1.54886 78.7284C -6.82566 136.435 17.4626 164.51 106.274 165.22C 165.134 165.717 218.447 153.302 210.231 85.1142C 190.586 168.937 79.2596 157.327 50.2622 139.278Z"/>
<path id="panda_book_6_fill" d="M 24 4.80852C 24 8.95923 17.6699 15 11.7558 15C 5.84176 15 6.62326e-06 8.78319 6.62326e-06 4.63248C 6.62326e-06 0.481772 5.89601 -6.78587e-06 11.7558 -6.78587e-06C 17.6157 -6.78587e-06 24 0.657809 24 4.80852Z"/>
<path id="panda_book_7_fill" d="M 19.7158 4.63248C 19.4897 8.02346 14.0459 14.055 9.44302 14.0086C 4.63217 13.9623 -0.431887 8.44965 0.0293038 4.51203C 0.490494 0.574417 4.55079 -6.78587e-06 9.45207 -6.78587e-06C 14.3534 -6.78587e-06 19.978 0.639277 19.7158 4.63248Z"/>
<path id="panda_book_8_fill" d="M 3.15599 5.85546C 4.89899 5.85546 6.31198 4.54467 6.31198 2.92773C 6.31198 1.31079 4.89899 -3.11019e-06 3.15599 -3.11019e-06C 1.41298 -3.11019e-06 0 1.31079 0 2.92773C 0 4.54467 1.41298 5.85546 3.15599 5.85546Z"/>
<path id="panda_book_9_fill" d="M 36.286 35.2975C 48.9237 37.2144 52.8072 21.5301 61.236 12.2848C 43.6452 16.1175 21.347 8.1337 0 0C 9.81728 18.0883 23.1492 33.3172 36.286 35.2975Z"/>
<path id="panda_book_10_fill" d="M 0 15.7054C 8.05994 24.453 11.7048 39.0041 22.0536 39.11C 37.7504 39.2689 53.2628 21.17 63.5574 0C 44.9999 12.2759 20.3831 22.2608 0 15.7054Z"/>
<path id="panda_book_11_fill" d="M 24.1645 12.9625C 37.5102 12.9625 48.329 10.0608 48.329 6.48127C 48.329 2.90176 37.5102 0 24.1645 0C 10.8188 0 0 2.90176 0 6.48127C 0 10.0608 10.8188 12.9625 24.1645 12.9625Z"/>
<path id="panda_book_12_fill" d="M 24.1645 12.9625C 37.5102 12.9625 48.329 10.0608 48.329 6.48127C 48.329 2.90176 37.5102 0 24.1645 0C 10.8188 0 0 2.90176 0 6.48127C 0 10.0608 10.8188 12.9625 24.1645 12.9625Z"/>
<path id="panda_book_13_fill" d="M 3.5 5.5C 5.43299 5.5 7 5.28732 7 3.40616C 7 1.52499 5.43299 0 3.5 0C 1.567 0 0 1.52499 0 3.40616C 0 5.28732 1.567 5.5 3.5 5.5Z"/>
<path id="panda_book_14_fill" d="M 35.325 41.8172C 53.9948 19.2386 54.9928 9.11416 47.5076 3.43773C 33.1445 -7.44917 9.86424 9.48484 3.02986 26.8213C -3.80451 44.1577 1.14226 72.8787 15.6572 78.3328C 30.1721 83.7868 22.242 57.6286 35.325 41.8172Z"/>
<path id="panda_book_15_fill" d="M 35.3237 41.817C 53.9928 19.2385 54.9908 9.11412 47.5058 3.43772C 33.1433 -7.44913 9.86389 9.4848 3.02975 26.8211C -3.80438 44.1575 1.14221 72.8784 15.6566 78.3324C 30.171 83.7864 22.2412 57.6284 35.3237 41.817Z"/>
<path id="panda_book_16_fill" d="M 49.7264 22.1232C 52.7964 34.7045 48.7393 44.6911 24.3751 47.5929C 3.41708 50.0922 1.19178e-05 36.939 1.19178e-05 23.7964C 1.19178e-05 17.4852 2.56808 11.4325 7.13929 6.96983C 11.7105 2.50713 17.9104 -9.04934e-06 24.3751 -9.04934e-06C 37.8372 -9.04934e-06 46.6131 9.33007 49.7264 22.1232Z"/>
<path id="panda_book_17_fill" d="M 13 26C 20.1797 26 26 20.1797 26 13C 26 5.8203 20.1797 2.53616e-06 13 2.53616e-06C 5.8203 2.53616e-06 0 5.8203 0 13C 0 20.1797 5.8203 26 13 26Z"/>
<path id="panda_book_18_fill" d="M 3.34113 6.52363C 5.18639 6.52363 6.68226 5.06327 6.68226 3.26181C 6.68226 1.46036 5.18639 3.23191e-06 3.34113 3.23191e-06C 1.49588 3.23191e-06 0 1.46036 0 3.26181C 0 5.06327 1.49588 6.52363 3.34113 6.52363Z"/>
<path id="panda_book_19_fill" d="M 6.37852 12.4542C 9.90128 12.4542 12.757 9.66624 12.757 6.22711C 12.757 2.78797 9.90128 -3.5551e-06 6.37852 -3.5551e-06C 2.85576 -3.5551e-06 0 2.78797 0 6.22711C 0 9.66624 2.85576 12.4542 6.37852 12.4542Z"/>
<path id="panda_book_20_fill" d="M 0.888619 22.1232C -2.18132 34.7045 1.8758 44.6911 26.24 47.5929C 47.198 50.0922 50.615 36.939 50.615 23.7964C 50.615 17.4852 48.047 11.4325 43.4758 6.96983C 38.9046 2.50714 32.7047 -6.0199e-14 26.24 0C 12.7345 -6.0199e-14 4.05618 9.33008 0.888619 22.1232Z"/>
<path id="panda_book_21_fill" d="M 13 26C 20.1797 26 26 20.1797 26 13C 26 5.8203 20.1797 2.53616e-06 13 2.53616e-06C 5.8203 2.53616e-06 3.62309e-06 5.8203 3.62309e-06 13C 3.62309e-06 20.1797 5.8203 26 13 26Z"/>
<path id="panda_book_22_fill" d="M 3.34114 6.52363C 5.18639 6.52363 6.68225 5.06327 6.68225 3.26181C 6.68225 1.46036 5.18639 3.23191e-06 3.34114 3.23191e-06C 1.49588 3.23191e-06 -2.31735e-06 1.46036 -2.31735e-06 3.26181C -2.31735e-06 5.06327 1.49588 6.52363 3.34114 6.52363Z"/>
<path id="panda_book_23_fill" d="M 6.37852 12.4542C 9.90128 12.4542 12.757 9.66624 12.757 6.22711C 12.757 2.78797 9.90128 -3.5551e-06 6.37852 -3.5551e-06C 2.85576 -3.5551e-06 -2.64839e-06 2.78797 -2.64839e-06 6.22711C -2.64839e-06 9.66624 2.85576 12.4542 6.37852 12.4542Z"/>
<path id="panda_book_24_fill" d="M 0 0L 119.474 0L 119.474 39.2926L 0 39.2926L 0 0Z"/>
<path id="panda_book_25_fill" d="M 0 0L 9.20194 0L 9.20194 35.5318C 9.20194 38.0729 7.14202 40.1328 4.60097 40.1328L 4.60097 40.1328C 2.05993 40.1328 0 38.0729 0 35.5318L 0 0Z"/>
<path id="panda_book_26_fill" d="M 0 0L 112.861 0L 112.861 36.4946L 0 36.4946L 0 0Z"/>
<path id="panda_book_27_fill" fill-rule="evenodd" d="M 54.9831 7.90111C 31.0623 -3.17443 19.2657 -2.07879 4.59714e-05 7.90124L 0 42.548C 18.4368 32.2517 30.3689 31.8898 54.9831 42.5479C 73.419 32.2523 85.3512 31.8903 109.965 42.5484L 109.965 7.90165C 86.0445 -3.17389 74.248 -2.07825 54.9831 7.90111Z"/>
<path id="panda_book_28_fill" d="M 0 7.90114C 13.1154 -2.07873 21.1459 -3.17446 37.4303 7.90114L 37.4303 42.5479C 20.6739 31.8897 12.5512 32.2518 0 42.5479L 0 7.90114Z"/>
<path id="panda_book_29_stroke" d="M 0 0.125L 34.6468 0.125L 34.6468 -0.125L 0 -0.125L 0 0.125Z"/>
<path id="panda_book_30_fill" d="M 157.553 70.1225C 157.553 108.85 122.283 140.245 78.7763 140.245C 35.2694 140.245 0 108.85 0 70.1225C 0 31.3949 35.2694 0 78.7763 0C 122.283 0 157.553 31.3949 157.553 70.1225Z"/>
<path id="panda_book_31_fill" d="M 49.673 21.0117C 49.673 32.6162 38.5534 42.0235 24.8365 42.0235C 11.1197 42.0235 0 32.6162 0 21.0117C 0 9.40728 11.1197 0 24.8365 0C 38.5534 0 49.673 9.40728 49.673 21.0117Z"/>
<path id="panda_book_32_fill" d="M 13.2793 2.03713C 13.2793 3.1622 10.3066 4.07425 6.63964 4.07425C 2.97267 4.07425 0 3.1622 0 2.03713C 0 0.912053 2.97267 0 6.63964 0C 10.3066 0 13.2793 0.912053 13.2793 2.03713Z"/>
<path id="panda_book_33_fill" d="M 44.9089 22.3179C 44.9089 30.0735 38.2405 43.9565 31.4274 43.8897C 27.8233 43.8538 27.4641 36.6991 22.8859 36.2908C 17.3957 35.7772 17.3957 44.4752 12.8097 43.769C 6.52887 42.7983 1.61411e-06 29.4751 1.61411e-06 22.3204C -0.000168074 19.3894 0.580463 16.4871 1.70875 13.7792C 2.83703 11.0712 4.49087 8.61069 6.57584 6.53804C 8.66081 4.4654 11.1361 2.82123 13.8603 1.69943C 16.5845 0.577634 19.5044 0.000170559 22.4532 1.93695e-06C 25.4019 -0.000166685 28.3218 0.576966 31.0462 1.69845C 33.7706 2.81994 36.246 4.46382 38.3312 6.53622C 40.4164 8.60863 42.0705 11.069 43.1991 13.7768C 44.3277 16.4846 44.9087 19.3869 44.9089 22.3179Z"/>
<path id="panda_book_34_fill" d="M 35.3789 20.7238C 33.9914 25.1229 27.2559 33.5308 23.1505 31.7254C 20.3911 30.5107 19.3654 25.5158 16.1746 24.5605C 11.0952 23.0427 7.93024 29.599 4.70585 28.0864C 0.282657 26.0114 -1.17452 16.0422 0.98541 10.3873C 4.02636 2.42622 14.3506 -1.97033 23.4812 0.86226C 32.6118 3.69485 37.7506 13.1993 35.3789 20.7238Z"/>
<path id="panda_book_35_fill" d="M 7.66568 14.6534C 11.8993 14.6534 15.3313 11.3732 15.3313 7.32672C 15.3313 3.28028 11.8993 0 7.66568 0C 3.43204 0 0 3.28028 0 7.32672C 0 11.3732 3.43204 14.6534 7.66568 14.6534Z"/>
<path id="panda_book_36_fill" d="M 4.97793 8.8527C 7.72716 8.8527 9.95586 6.87096 9.95586 4.42635C 9.95586 1.98174 7.72716 0 4.97793 0C 2.22869 0 0 1.98174 0 4.42635C 0 6.87096 2.22869 8.8527 4.97793 8.8527Z"/>
<path id="panda_book_37_fill" d="M 7.5339 14.977C 11.6948 14.977 15.0678 11.6243 15.0678 7.48852C 15.0678 3.35272 11.6948 0 7.5339 0C 3.37304 0 0 3.35272 0 7.48852C 0 11.6243 3.37304 14.977 7.5339 14.977Z"/>
<path id="panda_book_38_fill" d="M 52.4406 23.0742C 54.0683 38.9166 41.4627 43.6393 26.6403 43.5109C 4.37703 43.3183 -1.71004 36.1637 0.387881 21.4255C 2.16026 8.98827 12.3657 -6.26972e-07 26.6403 -6.26972e-07C 42.6925 0.0102717 51.2185 11.1249 52.4406 23.0742Z"/>
<path id="panda_book_39_fill" d="M 19.6023 32.517C 15.0551 29.6356 12.2054 26.4563 10.9859 20.7038C 9.53646 12.6375 12.6368 5.27483 17.6026 -6.26972e-07C 8.16972 2.93274 1.75711 10.4829 0.387781 20.0952C -1.71014 34.8257 4.37951 41.9778 26.6402 42.1807C 41.3954 42.3091 53.9545 37.6275 52.4585 21.9519C 46.9011 34.7589 30.1901 39.212 19.6023 32.517Z"/>
<path id="panda_book_40_fill" d="M 12.4661 5.64977C 13.2412 8.85986 12.2077 11.41 6.11032 12.1521C 0.855186 12.789 2.18503e-06 9.43255 2.18503e-06 6.07864C -0.000676761 5.28063 0.156875 4.4903 0.463644 3.75283C 0.770412 3.01537 1.22038 2.34522 1.78785 1.7807C 2.35531 1.21618 3.02913 0.76835 3.77081 0.462807C 4.51248 0.157264 5.30746 -2.85351e-07 6.11032 3.88319e-13C 9.48456 4.02917e-13 11.6832 2.38061 12.4661 5.64977Z"/>
<path id="panda_book_41_fill" d="M 2.97636 5.91685C 4.62015 5.91685 5.95272 4.59232 5.95272 2.95843C 5.95272 1.32453 4.62015 0 2.97636 0C 1.33256 0 0 1.32453 0 2.95843C 0 4.59232 1.33256 5.91685 2.97636 5.91685Z"/>
<path id="panda_book_42_fill" d="M 0.837102 1.66411C 1.29942 1.66411 1.6742 1.29159 1.6742 0.832056C 1.6742 0.372524 1.29942 0 0.837102 0C 0.374784 0 0 0.372524 0 0.832056C 0 1.29159 0.374784 1.66411 0.837102 1.66411Z"/>
<path id="panda_book_43_fill" d="M 1.59927 3.17927C 2.48253 3.17927 3.19855 2.46756 3.19855 1.58963C 3.19855 0.711703 2.48253 0 1.59927 0C 0.716019 0 0 0.711703 0 1.58963C 0 2.46756 0.716019 3.17927 1.59927 3.17927Z"/>
<path id="panda_book_44_fill" d="M 7.22387 1.40731C 7.22387 2.61944 5.30938 4.38885 3.54217 4.38885C 1.77496 4.38885 1.26154e-06 2.57579 1.26154e-06 1.36365C 1.26154e-06 0.15152 1.77238 -3.44835e-06 3.54217 -3.44835e-06C 5.31197 -3.44835e-06 7.22387 0.195173 7.22387 1.40731Z"/>
<path id="panda_book_45_fill" d="M 5.94977 1.35337C 5.8826 2.34208 4.24457 4.10122 2.84941 4.08838C 1.40257 4.07297 -0.119206 2.47563 0.00739264 1.31742C 0.133991 0.159221 1.35864 -9.40458e-07 2.84941 -9.40458e-07C 4.34017 -9.40458e-07 6.02987 0.192602 5.94977 1.35337Z"/>
<path id="panda_book_46_fill" d="M 0.948199 1.7052C 1.47188 1.7052 1.8964 1.32348 1.8964 0.8526C 1.8964 0.381722 1.47188 0 0.948199 0C 0.424523 0 0 0.381722 0 0.8526C 0 1.32348 0.424523 1.7052 0.948199 1.7052Z"/>
<path id="panda_book_47_fill" d="M 0.223882 5.64977C -0.551211 8.85986 0.48224 11.41 6.57964 12.1521C 11.8348 12.789 12.69 9.43255 12.69 6.07864C 12.6906 5.28084 12.5332 4.49072 12.2266 3.75342C 11.92 3.01613 11.4702 2.3461 10.903 1.78161C 10.3358 1.21712 9.66232 0.769238 8.92094 0.463544C 8.17956 0.15785 7.38486 0.000337051 6.58223 0C 3.2054 1.45978e-14 1.00673 2.38061 0.223882 5.64977Z"/>
<path id="panda_book_48_fill" d="M 2.97636 5.91685C 4.62015 5.91685 5.95271 4.59232 5.95271 2.95843C 5.95271 1.32453 4.62015 0 2.97636 0C 1.33256 0 0 1.32453 0 2.95843C 0 4.59232 1.33256 5.91685 2.97636 5.91685Z"/>
<path id="panda_book_49_fill" d="M 0.837087 1.66411C 1.2994 1.66411 1.67418 1.29159 1.67418 0.832056C 1.67418 0.372524 1.2994 0 0.837087 0C 0.374777 0 0 0.372524 0 0.832056C 0 1.29159 0.374777 1.66411 0.837087 1.66411Z"/>
<path id="panda_book_50_fill" d="M 1.59928 3.17927C 2.48253 3.17927 3.19855 2.46756 3.19855 1.58963C 3.19855 0.711703 2.48253 0 1.59928 0C 0.716021 0 0 0.711703 0 1.58963C 0 2.46756 0.716021 3.17927 1.59928 3.17927Z"/>
<path id="panda_book_51_fill" d="M 9.08667 9.00882C 12.2542 9.49932 13.2205 5.48542 15.3494 3.13563C 12.2155 5.00005 4.84691 2.14691 -6.30772e-07 1.88092e-06C 2.45188 4.6174 5.80286 8.50291 9.08667 9.00882Z"/>
<path id="panda_book_52_fill" d="M -3.78463e-06 4.01134C 2.02041 6.243 2.93244 9.95901 5.529 9.98726C 9.46647 10.0155 13.3523 5.40837 15.9359 0C 10.7014 4.33748 5.11303 5.68572 -3.78463e-06 4.01134Z"/>
<path id="panda_book_53_fill" d="M 11.3307 11.4085C 10.8485 2.35877 8.95434 -0.195897 6.0642 0.0114928C 0.517162 0.410562 -1.23204 9.08952 0.848098 14.5099C 2.92824 19.9304 10.0637 25.5927 14.5045 23.8991C 18.9453 22.2054 11.668 17.7465 11.3307 11.4085Z"/>
<path id="panda_book_54_fill" d="M 9.3775 9.74157C 8.97841 2.01412 7.41074 -0.167278 5.01883 0.00980996C 0.428011 0.350569 -1.01966 7.76141 0.701899 12.3898C 2.42345 17.0183 8.32891 21.8533 12.0042 20.4071C 15.6794 18.9609 9.6566 15.1535 9.3775 9.74157Z"/>
<path id="panda_book_55_fill" d="M 1.34981 0.902286C 1.54875 1.48383 1.34982 1.53255 1.00168 1.6787C 0.65354 1.82484 0.277426 1.71827 0.0878149 1.18849C -0.101796 0.658709 0.0256515 0.174596 0.37379 0.0254046C 0.721928 -0.123787 1.18507 0.412086 1.34981 0.902286Z"/>
<path id="panda_book_56_fill" d="M 1.28085 1.1575C 1.25909 1.76644 1.05705 1.74513 0.680938 1.76644C 0.304825 1.78775 -0.00912106 1.55331 0.000204053 0.993079C 0.00952917 0.432852 0.311042 0.0218127 0.680938 0.000499743C 1.05083 -0.0208132 1.31194 0.639895 1.28085 1.1575Z"/>
<path id="panda_book_57_fill" d="M 1.18932 1.27232C 0.999707 1.8569 0.819421 1.78078 0.468179 1.70466C 0.116937 1.62854 -0.109968 1.32407 0.0547742 0.791245C 0.219516 0.258419 0.601837 -0.0673651 0.953079 0.0117976C 1.30432 0.0909603 1.34784 0.779071 1.18932 1.27232Z"/>
<path id="panda_book_58_fill" d="M 6.27788 3.52411C 6.16668 5.4874 4.82275 3.18673 3.10073 3.05752C 1.37872 2.9283 -0.108185 5.0244 0.00619222 3.05752C 0.118426 2.169 0.523554 1.36115 1.14049 0.795646C 1.75744 0.230147 2.54066 -0.0512738 3.33342 0.00770528C 4.12618 0.0666844 4.86999 0.461715 5.41596 1.11373C 5.96192 1.76575 6.26976 2.62664 6.27788 3.52411L 6.27788 3.52411Z"/>
<path id="panda_book_59_fill" d="M 1.13133 1.3379C 0.786299 1.84941 0.633991 1.72762 0.316938 1.56016C -0.000113664 1.3927 -0.13377 1.03952 0.173957 0.567589C 0.481684 0.0956588 0.938606 -0.111386 1.25566 0.0591181C 1.57271 0.229622 1.4204 0.905552 1.13133 1.3379Z"/>
<path id="panda_book_60_fill" d="M 3.41557 0.110252C 3.41557 0.646981 2.53972 1.61515 1.70778 1.74099C 0.875851 1.86682 0 1.45079 0 0.914063C 0 0.377334 0.754417 1.17087 1.59152 1.17087C 2.42862 1.17087 3.41557 -0.426476 3.41557 0.110252Z"/>
</defs>
</svg>
