<svg width="314" height="328" viewBox="0 0 314 328" version="1.1" xmlns="http://www.w3.org/2000/svg" xmlns:xlink="http://www.w3.org/1999/xlink">
    <style>
        #panda_1_baby_shadow { filter: url(#panda_1_baby_filter0_d); }

        * {
        transform-box: fill-box;
        }

        <!--hand-->
        #panda_1_baby_20_fill {
        transform-origin: left;
        transform: rotate(30deg) translate(6px, -20px);
        }

        #panda_1_baby_right_hand {
        transform-origin: top;
        animation: panda_1_baby_hand_right 1s infinite alternate ease;
        }
        @keyframes panda_1_baby_hand_right {
        0%   { transform: rotate(0deg); }
        100%   { transform: rotate(3deg); }
        }

        <!--1_baby-->
        #panda_1_baby_baby {
        transform-origin: center;
        animation: panda_1_baby_baby 1s infinite alternate ease;
        }
        @keyframes panda_1_baby_baby {
        0%   { transform: translateY(0); }
        100%   { transform: translateY(-5px); }
        }

        <!--nipple-->
        #panda_1_baby_nippleblue {
        transform-origin: center;
        animation: panda_1_baby_nipple 0.3s infinite alternate ease;
        }
        @keyframes panda_1_baby_nipple {
        0%   { transform: translateY(0); }
        100%   { transform: translateY(3px); }
        }
    </style>
<g id="Canvas" transform="translate(7981 -1261)">
<g id="Panda sitting4">
<g id="panda_1_baby_shadow">
<use xlink:href="#panda_1_baby_0_fill" transform="matrix(1 -6.93705e-18 -2.4829e-05 1 -7981 1486.1)" fill="#333333" fill-opacity="0.1"/>
</g>
<g id="ears">
<g id="left ear">
<use xlink:href="#panda_1_baby_1_fill" transform="translate(-7921.45 1261.25)" fill="#383D42"/>
</g>
<g id="right ear">
<use xlink:href="#panda_1_baby_2_fill" transform="translate(-7784.17 1261)" fill="#383D42"/>
</g>
</g>
<g id="body">
<g id="Ellipse">
<use xlink:href="#panda_1_baby_3_fill" transform="translate(-7914.32 1394.02)" fill="#FFFFFF"/>
</g>
<g id="Subtract">
<use xlink:href="#panda_1_baby_4_fill" transform="translate(-7927.35 1394.02)" fill="#E2E2E2"/>
</g>
<g id="Vector 2">
<use xlink:href="#panda_1_baby_5_fill" transform="translate(-7920.37 1425.64)" fill="#383D42"/>
</g>
</g>
<g id="head">
<g id="head">
<use xlink:href="#panda_1_baby_6_fill" transform="translate(-7927.04 1273.26)" fill="#FFFFFF"/>
</g>
<g id="Vector">
<use xlink:href="#panda_1_baby_7_fill" transform="translate(-7927.04 1278.41)" fill="#E2E2E2"/>
</g>
</g>
<g id="panda_1_baby_nose">
<g id="Vector">
<use xlink:href="#panda_1_baby_8_fill" transform="translate(-7836.78 1360.53)" fill="#2C2D32"/>
</g>
<g id="Vector">
<use xlink:href="#panda_1_baby_9_fill" transform="translate(-7832.5 1360.77)" fill="#364144"/>
</g>
<g id="Vector">
<use xlink:href="#panda_1_baby_10_fill" transform="translate(-7820.7 1363.2)" fill="#697175"/>
</g>
</g>
<g id="eyes">
<g id="panda_1_baby_left_eye">
<g id="Vector">
<use xlink:href="#panda_1_baby_11_fill" transform="translate(-7891.68 1322.85)" fill="#383D42"/>
</g>
<g id="Vector">
<use xlink:href="#panda_1_baby_12_fill" transform="translate(-7874 1338.2)" fill="#27272B"/>
</g>
<g id="Vector">
<use xlink:href="#panda_1_baby_13_fill" transform="translate(-7865.77 1350.23)" fill="#FFFFFF"/>
</g>
<g id="Vector">
<use xlink:href="#panda_1_baby_14_fill" transform="translate(-7859.06 1344.49)" fill="#FFFFFF"/>
</g>
</g>
<g id="panda_1_baby_right_eye">
<g id="Vector">
<use xlink:href="#panda_1_baby_15_fill" transform="translate(-7804.72 1322.85)" fill="#383D42"/>
</g>
<g id="Vector">
<use xlink:href="#panda_1_baby_16_fill" transform="translate(-7797.71 1338.21)" fill="#27272B"/>
</g>
<g id="Vector">
<use xlink:href="#panda_1_baby_17_fill" transform="translate(-7791.95 1350.23)" fill="#FFFFFF"/>
</g>
<g id="Vector">
<use xlink:href="#panda_1_baby_18_fill" transform="translate(-7785.24 1344.49)" fill="#FFFFFF"/>
</g>
</g>
</g>
<g id="panda_1_baby_mouth">
<use xlink:href="#panda_1_baby_19_fill" transform="translate(-7826.54 1398.89)" fill="#364144"/>
</g>
<g id="panda_1_baby_right leg">
<g id="Ellipse">
<use xlink:href="#panda_1_baby_21_fill" transform="matrix(-0.93884 0.341914 0.347723 0.938479 -7879.29 1485.31)" fill="#383D42"/>
</g>
<g id="Ellipse 2">
<use xlink:href="#panda_1_baby_22_fill" transform="matrix(-0.93884 0.341914 0.347723 0.938479 -7891.03 1515.09)" fill="#5B6167"/>
</g>
<g id="Ellipse 2.1">
<use xlink:href="#panda_1_baby_23_fill" transform="matrix(-0.940958 0.336043 0.341852 0.940633 -7909.02 1526.1)" fill="#999DA1"/>
</g>
<g id="Ellipse">
<use xlink:href="#panda_1_baby_24_fill" transform="matrix(-0.983252 -0.192926 -0.182712 0.981138 -7884.71 1508.86)" fill="#5B6167"/>
</g>
<g id="Ellipse">
<use xlink:href="#panda_1_baby_25_fill" transform="matrix(-0.623526 0.77823 0.779803 0.630436 -7932.25 1521.75)" fill="#5B6167"/>
</g>
<g id="Ellipse">
<use xlink:href="#panda_1_baby_26_fill" transform="matrix(-0.997947 0.0741578 0.0829177 0.995861 -7897.94 1504.7)" fill="#5B6167"/>
</g>
<g id="Ellipse">
<use xlink:href="#panda_1_baby_27_fill" transform="matrix(-0.93884 0.341914 0.347723 0.938479 -7911.68 1506.18)" fill="#5B6167"/>
</g>
<g id="Ellipse">
<use xlink:href="#panda_1_baby_28_fill" transform="matrix(-0.809099 0.58404 0.587031 0.812162 -7924.15 1511.75)" fill="#5B6167"/>
</g>
</g>
<g id="panda_1_baby_left leg">
<g id="Ellipse">
<use xlink:href="#panda_1_baby_21_fill" transform="matrix(0.93884 0.341914 -0.347723 0.938479 -7764.51 1485.31)" fill="#383D42"/>
</g>
<g id="Ellipse 2">
<use xlink:href="#panda_1_baby_29_fill" transform="matrix(0.93884 0.341914 -0.347723 0.938479 -7752.78 1515.09)" fill="#5B6167"/>
</g>
<g id="Ellipse 2.2">
<use xlink:href="#panda_1_baby_30_fill" transform="matrix(-0.995471 0.0858164 0.0913948 0.996645 -7741.52 1523.5)" fill="#999DA1"/>
</g>
<g id="Ellipse">
<use xlink:href="#panda_1_baby_31_fill" transform="matrix(0.983251 -0.192926 0.182712 0.981141 -7759.1 1508.86)" fill="#5B6167"/>
</g>
<g id="Ellipse">
<use xlink:href="#panda_1_baby_32_fill" transform="matrix(0.623527 0.778232 -0.779801 0.630435 -7711.56 1521.75)" fill="#5B6167"/>
</g>
<g id="Ellipse">
<use xlink:href="#panda_1_baby_33_fill" transform="matrix(0.997947 0.074158 -0.0829176 0.995863 -7745.87 1504.7)" fill="#5B6167"/>
</g>
<g id="Ellipse">
<use xlink:href="#panda_1_baby_27_fill" transform="matrix(0.93884 0.341914 -0.347723 0.938479 -7732.13 1506.18)" fill="#5B6167"/>
</g>
<g id="Ellipse">
<use xlink:href="#panda_1_baby_34_fill" transform="matrix(0.809099 0.584041 -0.587029 0.812161 -7719.65 1511.75)" fill="#5B6167"/>
</g>
</g>
<g id="panda_1_baby_baby">
<g id="kulek">
<g id="Ellipse">
<use xlink:href="#panda_1_baby_35_fill" transform="matrix(0.973897 0.226992 -0.225262 0.974298 -7830.7 1413.2)" fill="#FFD6D6"/>
</g>
<g id="Subtract">
<use xlink:href="#panda_1_baby_36_fill" transform="matrix(0.987766 -0.155942 0.155942 0.987766 -7855 1432.93)" fill="#F2C7C7"/>
</g>
<g id="Ellipse">
<use xlink:href="#panda_1_baby_37_fill" transform="matrix(0.906688 0.421802 -0.420209 0.907427 -7825.59 1444.6)" fill="#E8A9A9"/>
</g>
<g id="Ellipse">
<use xlink:href="#panda_1_baby_38_fill" transform="matrix(-0.992064 0.125731 0.1276 0.991826 -7742.46 1477.18)" fill="#E8A9A9"/>
</g>
<g id="Ellipse">
<use xlink:href="#panda_1_baby_39_fill" transform="matrix(-0.700516 -0.713637 -0.71237 0.701804 -7786.58 1531.43)" fill="#E8A9A9"/>
</g>
</g>
    <g id="panda_1_baby_left_hand">
        <use xlink:href="#panda_1_baby_20_fill" transform="matrix(0.998842 0.0481104 0.0543576 -0.998521 -7930.51 1513.52)" fill="#383D42"/>
    </g>
<g id="panda_1_baby_right_hand">
<use xlink:href="#panda_1_baby_40_fill" transform="matrix(-0.996867 0.0790963 -0.0829683 -0.996552 -7714.84 1512.93)" fill="#383D42"/>
</g>
<g id="babyhead">
<g id="left ear">
<use xlink:href="#panda_1_baby_41_fill" transform="matrix(0.973897 0.226992 -0.225262 0.974298 -7807.67 1375.41)" fill="#4B535C"/>
</g>
<g id="right ear">
<use xlink:href="#panda_1_baby_42_fill" transform="matrix(0.973897 0.226992 -0.225262 0.974298 -7755.44 1387.65)" fill="#4B535C"/>
</g>
<g id="head">
<g id="head">
<use xlink:href="#panda_1_baby_43_fill" transform="matrix(0.973897 0.226992 -0.225262 0.974298 -7815.96 1374.69)" fill="#FFFFFF"/>
</g>
<g id="Vector">
<use xlink:href="#panda_1_baby_44_fill" transform="matrix(0.973897 0.226992 -0.225262 0.974298 -7816.47 1376.91)" fill="#EDEDED"/>
</g>
</g>
<g id="panda_1_baby_right_eye">
<g id="Vector">
<use xlink:href="#panda_1_baby_45_fill" transform="matrix(0.973897 0.226992 -0.225262 0.974298 -7805.14 1396.99)" fill="#4B535C"/>
</g>
<g id="Vector">
<use xlink:href="#panda_1_baby_46_fill" transform="matrix(0.973897 0.226992 -0.225262 0.974298 -7797.9 1407.1)" fill="#030E12"/>
</g>
<g id="Vector">
<use xlink:href="#panda_1_baby_47_fill" transform="matrix(0.973897 0.226992 -0.225262 0.974298 -7795.95 1412.72)" fill="#FFFFFF"/>
</g>
<g id="Vector">
<use xlink:href="#panda_1_baby_48_fill" transform="matrix(0.973897 0.226992 -0.225262 0.974298 -7792.17 1410.75)" fill="#FFFFFF"/>
</g>
</g>
<g id="right_cheek">
<use xlink:href="#panda_1_baby_49_fill" transform="matrix(0.973897 0.226992 -0.225262 0.974298 -7803.74 1420.79)" fill="#FFD6D6" fill-opacity="0.33"/>
</g>
<g id="left_cheek">
<use xlink:href="#panda_1_baby_49_fill" transform="matrix(0.973897 0.226992 -0.225262 0.974298 -7764.85 1429.83)" fill="#FFD6D6" fill-opacity="0.33"/>
</g>
<g id="panda_1_baby_nose">
<g id="Vector">
<use xlink:href="#panda_1_baby_50_fill" transform="matrix(0.973897 0.226992 -0.225262 0.974298 -7782.21 1419.52)" fill="#2C2D32"/>
</g>
<g id="Vector">
<use xlink:href="#panda_1_baby_51_fill" transform="matrix(0.973897 0.226992 -0.225262 0.974298 -7780.75 1419.96)" fill="#364144"/>
</g>
<g id="Vector">
<use xlink:href="#panda_1_baby_52_fill" transform="matrix(0.973897 0.226992 -0.225262 0.974298 -7776.84 1421.8)" fill="#697175"/>
</g>
</g>
<g id="panda_1_baby_left_eye">
<g id="Vector">
<use xlink:href="#panda_1_baby_53_fill" transform="matrix(0.973897 0.226992 -0.225262 0.974298 -7764.68 1406.42)" fill="#4B535C"/>
</g>
<g id="Vector">
<use xlink:href="#panda_1_baby_54_fill" transform="matrix(0.973897 0.226992 -0.225262 0.974298 -7763.6 1415.1)" fill="#030E12"/>
</g>
<g id="Vector">
<use xlink:href="#panda_1_baby_55_fill" transform="matrix(0.973897 0.226992 -0.225262 0.974298 -7762.17 1420.59)" fill="#FFFFFF"/>
</g>
<g id="Vector">
<use xlink:href="#panda_1_baby_56_fill" transform="matrix(0.973897 0.226992 -0.225262 0.974298 -7758.39 1418.62)" fill="#FFFFFF"/>
</g>
</g>
<g id="panda_1_baby_nippleblue">
<g id="Ellipse 2">
<use xlink:href="#panda_1_baby_57_fill" transform="matrix(0.973897 0.226992 0.225262 -0.974298 -7794.13 1442.57)" fill="#56CCF2"/>
</g>
<g id="Subtract">
<use xlink:href="#panda_1_baby_58_fill" transform="matrix(-0.973897 -0.226992 0.225262 -0.974298 -7778.92 1449.32)" fill="#3B7E94"/>
</g>
<g id="Ellipse 3">
<use xlink:href="#panda_1_baby_59_fill" transform="matrix(0.973897 0.226992 -0.225262 0.974298 -7785.27 1433.73)" fill="#CCF1FC"/>
</g>
<g id="Vector">
<use xlink:href="#panda_1_baby_60_fill" transform="matrix(0.973897 0.226992 -0.225262 0.974298 -7790.38 1430.35)" fill="#8DD8F0"/>
</g>
</g>
</g>
</g>
</g>
</g>
<defs>
    <filter id="panda_1_baby_filter0_d" filterUnits="userSpaceOnUse" x="-7991" y="1486.1" width="390" height="110" color-interpolation-filters="sRGB">
        <feGaussianBlur stdDeviation="3"/>
    </filter>
<path id="panda_1_baby_0_fill" d="M 313.997 51.4479C 313.997 79.8618 243.707 102.896 156.999 102.896C 70.2907 102.896 0 79.8618 0 51.4479C 0 23.034 70.2907 0 156.999 0C 243.707 0 313.997 23.034 313.997 51.4479Z"/>
<path id="panda_1_baby_1_fill" d="M 30.355 56.875C 47.1196 56.875 60.71 44.1431 60.71 28.4375C 60.71 12.7319 47.1196 0 30.355 0C 13.5904 0 0 12.7319 0 28.4375C 0 44.1431 13.5904 56.875 30.355 56.875Z"/>
<path id="panda_1_baby_2_fill" d="M 29.8274 58.1128C 46.3006 58.1128 59.6547 45.1038 59.6547 29.0564C 59.6547 13.009 46.3006 0 29.8274 0C 13.3542 0 0 13.009 0 29.0564C 0 45.1038 13.3542 58.1128 29.8274 58.1128Z"/>
<path id="panda_1_baby_3_fill" d="M 194.46 103.811C 194.46 161.144 150.929 180.455 97.2299 180.455C 43.5313 180.455 0 161.144 0 103.811C 0 46.4777 43.5313 0 97.2299 0C 150.929 0 194.46 46.4777 194.46 103.811Z"/>
<path id="panda_1_baby_4_fill" fill-rule="evenodd" d="M 106.778 180.437C 61.4917 175.137 27.9131 153.823 27.9131 104.985C 27.9131 51.092 68.8022 6.76831 121.192 1.46204C 115.519 0.50061 109.689 0 103.743 0C 46.4473 0 0 46.4777 0 103.811C 0 161.144 46.4473 180.455 103.743 180.455C 104.758 180.455 105.77 180.449 106.778 180.437Z"/>
<path id="panda_1_baby_5_fill" d="M 0.000412907 40.928C -0.075927 38.4426 10.4466 11.1546 20.4699 1.86037C 78.6813 19.5695 112 18.1891 173.374 0C 183.609 10.232 191.669 33.0215 195.391 40.928C 123.352 14.4243 74.224 12.8871 0.000412907 40.928Z"/>
<path id="panda_1_baby_6_fill" d="M 207.644 89.5083C 214.105 150.988 164.174 169.314 105.488 168.81C 17.3415 168.055 -6.7681 140.299 1.53403 83.1411C 8.544 34.8886 48.9132 0 105.488 0C 169.009 0.0419587 202.788 43.1335 207.644 89.5083Z"/>
<path id="panda_1_baby_7_fill" d="M 72.5672 148.161C 47.9108 140.719 22.8494 117.794 21.8587 91.8846C 20.0713 43.1706 50.0365 20.4653 69.6989 0C 32.3447 11.3813 6.95377 40.6789 1.53746 77.9802C -6.77543 135.138 17.3341 162.947 105.492 163.649C 163.919 164.142 213.646 145.985 207.723 85.1446C 207.723 168.16 97.2236 155.602 72.5672 148.161Z"/>
<path id="panda_1_baby_8_fill" d="M 26.9825 5.06917C 26.9825 9.44488 19.8658 15.8131 13.2167 15.8131C 6.56771 15.8131 7.44633e-06 9.2593 7.44633e-06 4.88359C 7.44633e-06 0.507888 6.62871 -7.15371e-06 13.2167 -7.15371e-06C 19.8048 -7.15371e-06 26.9825 0.693467 26.9825 5.06917Z"/>
<path id="panda_1_baby_9_fill" d="M 22.4431 5.14839C 22.189 8.72318 15.7914 14.8168 10.6165 14.768C 5.20781 14.7192 -0.485555 8.90768 0.0329479 4.75662C 0.55145 0.605562 5.11632 0 10.6267 0C 16.137 0 22.738 0.938722 22.4431 5.14839Z"/>
<path id="panda_1_baby_10_fill" d="M 3.54818 6.17287C 5.50779 6.17287 7.09637 4.79103 7.09637 3.08644C 7.09637 1.38184 5.50779 -3.27878e-06 3.54818 -3.27878e-06C 1.58857 -3.27878e-06 0 1.38184 0 3.08644C 0 4.79103 1.58857 6.17287 3.54818 6.17287Z"/>
<path id="panda_1_baby_11_fill" d="M 49.3605 21.9129C 52.4079 34.3747 48.3806 44.2664 24.1957 47.1406C 3.39192 49.6161 0 36.588 0 23.5703C -6.1209e-14 17.3191 2.54917 11.3239 7.08674 6.9036C 11.6243 2.48331 17.7786 -5.96268e-14 24.1957 0C 37.5588 -5.96268e-14 46.2701 9.24141 49.3605 21.9129Z"/>
<path id="panda_1_baby_12_fill" d="M 12.5608 24.1847C 19.4979 24.1847 25.1216 18.7708 25.1216 12.0924C 25.1216 5.41394 19.4979 0 12.5608 0C 5.62366 0 0 5.41394 0 12.0924C 0 18.7708 5.62366 24.1847 12.5608 24.1847Z"/>
<path id="panda_1_baby_13_fill" d="M 3.31655 6.46163C 5.14822 6.46163 6.63309 5.01515 6.63309 3.23081C 6.63309 1.44648 5.14822 3.20119e-06 3.31655 3.20119e-06C 1.48487 3.20119e-06 0 1.44648 0 3.23081C 0 5.01515 1.48487 6.46163 3.31655 6.46163Z"/>
<path id="panda_1_baby_14_fill" d="M 6.33158 12.3358C 9.82842 12.3358 12.6632 9.57438 12.6632 6.16793C 12.6632 2.76148 9.82842 -3.52131e-06 6.33158 -3.52131e-06C 2.83475 -3.52131e-06 0 2.76148 0 6.16793C 0 9.57438 2.83475 12.3358 6.33158 12.3358Z"/>
<path id="panda_1_baby_15_fill" d="M 0.88208 21.9129C -2.16526 34.3747 1.862 44.2664 26.0469 47.1406C 46.8507 49.6161 50.2426 36.588 50.2426 23.5703C 50.2426 17.3191 47.6934 11.3239 43.1559 6.9036C 38.6183 2.48331 32.464 -5.96269e-14 26.0469 1.07241e-27C 12.6408 -5.96269e-14 4.02634 9.24141 0.88208 21.9129Z"/>
<path id="panda_1_baby_16_fill" d="M 12.5608 24.1847C 19.4979 24.1847 25.1216 18.7708 25.1216 12.0924C 25.1216 5.41394 19.4979 2.3591e-06 12.5608 2.3591e-06C 5.62366 2.3591e-06 3.50069e-06 5.41394 3.50069e-06 12.0924C 3.50069e-06 18.7708 5.62366 24.1847 12.5608 24.1847Z"/>
<path id="panda_1_baby_17_fill" d="M 3.31655 6.46163C 5.14823 6.46163 6.63308 5.01515 6.63308 3.23081C 6.63308 1.44648 5.14823 3.20119e-06 3.31655 3.20119e-06C 1.48488 3.20119e-06 -2.30029e-06 1.44648 -2.30029e-06 3.23081C -2.30029e-06 5.01515 1.48488 6.46163 3.31655 6.46163Z"/>
<path id="panda_1_baby_18_fill" d="M 6.33159 12.3358C 9.82843 12.3358 12.6632 9.57438 12.6632 6.16793C 12.6632 2.76148 9.82843 -3.52131e-06 6.33159 -3.52131e-06C 2.83475 -3.52131e-06 -2.62891e-06 2.76148 -2.62891e-06 6.16793C -2.62891e-06 9.57438 2.83475 12.3358 6.33159 12.3358Z"/>
<path id="panda_1_baby_19_fill" d="M 2.87505 3.51721C 4.4629 3.51721 5.75012 2.26326 5.75012 0.716456C 5.75012 -0.83035 5.13033 0.609009 3.54248 0.609009C 1.95463 0.609009 0 -0.83035 0 0.716456C 0 2.26326 1.2872 3.51721 2.87505 3.51721Z"/>
<path id="panda_1_baby_20_fill" d="M 54.249 45.5449C 82.9204 21.8458 92.1045 9.34867 80.6093 3.39056C 58.5518 -8.03656 15.1486 11.6081 4.653 29.8048C -5.84263 48.0015 1.75418 78.1477 24.0449 83.8724C 46.3356 89.5971 34.1574 62.1409 54.249 45.5449Z"/>
<path id="panda_1_baby_21_fill" d="M 84.2268 31.554C 84.2268 57.3072 65.372 78.1844 42.1134 78.1844C 18.8548 78.1844 0 57.3072 0 31.554C 0 5.80067 18.388 3.07279e-11 41.6466 3.07279e-11C 64.9052 3.07279e-11 84.2268 5.80067 84.2268 31.554Z"/>
<path id="panda_1_baby_22_fill" d="M 40.2385 20.246C 40.2385 31.4276 31.8109 38.3858 20.6993 38.3858C 9.58779 38.3858 0 31.4276 0 20.246C 0 9.06446 9.00769 0 20.1192 0C 31.2308 0 40.2385 9.06446 40.2385 20.246Z"/>
<path id="panda_1_baby_23_fill" d="M 17.17 16.0801C 17.17 24.9609 11.2949 30.4874 3.54882 30.4874C -4.19729 30.4874 4.40196 25.6413 4.40196 16.7605C 4.40196 7.87973 -4.60169 0 3.14442 0C 10.8905 0 17.17 7.19931 17.17 16.0801Z"/>
<path id="panda_1_baby_24_fill" d="M 8.63763 5.77457C 8.63763 8.96378 6.70403 11.5491 4.31881 11.5491C 1.9336 11.5491 0 8.96378 0 5.77457C 0 2.58536 1.9336 0 4.31881 0C 6.70403 0 8.63763 2.58536 8.63763 5.77457Z"/>
<path id="panda_1_baby_25_fill" d="M 8.63633 5.77542C 8.63633 8.9651 6.70302 11.5508 4.31817 11.5508C 1.93331 11.5508 0 8.9651 0 5.77542C 0 2.58574 1.93331 0 4.31817 0C 6.70302 0 8.63633 2.58574 8.63633 5.77542Z"/>
<path id="panda_1_baby_26_fill" d="M 8.62689 5.7817C 8.62689 8.97485 6.6957 11.5634 4.31345 11.5634C 1.9312 11.5634 0 8.97485 0 5.7817C 0 2.58856 1.9312 0 4.31345 0C 6.6957 0 8.62689 2.58856 8.62689 5.7817Z"/>
<path id="panda_1_baby_27_fill" d="M 8.62253 5.78458C 8.62253 8.97932 6.69231 11.5692 4.31126 11.5692C 1.93022 11.5692 0 8.97932 0 5.78458C 0 2.58985 1.93022 0 4.31126 0C 6.69231 0 8.62253 2.58985 8.62253 5.78458Z"/>
<path id="panda_1_baby_28_fill" d="M 8.62612 5.7822C 8.62612 8.97562 6.6951 11.5644 4.31306 11.5644C 1.93102 11.5644 0 8.97562 0 5.7822C 0 2.58878 1.93102 0 4.31306 0C 6.6951 0 8.62612 2.58878 8.62612 5.7822Z"/>
<path id="panda_1_baby_29_fill" d="M 40.2385 20.246C 40.2385 31.4276 29.9243 39.0732 18.8127 39.0732C 7.70119 39.0732 0 31.4276 0 20.246C 0 9.06446 9.00769 0 20.1192 0C 31.2308 0 40.2385 9.06446 40.2385 20.246Z"/>
<path id="panda_1_baby_30_fill" d="M 18.5229 17.8007C 18.5229 26.6177 10.267 33.6551 2.52067 33.6551C -5.22566 33.6551 7.35432 23.8564 7.35432 15.0394C 7.35432 6.22242 -4.57665 0 3.16968 0C 10.916 0 18.5229 8.9837 18.5229 17.8007Z"/>
<path id="panda_1_baby_31_fill" d="M 8.63763 5.77456C 8.63763 8.96376 6.70403 11.5491 4.31882 11.5491C 1.9336 11.5491 0 8.96376 0 5.77456C 0 2.58536 1.9336 0 4.31882 0C 6.70403 0 8.63763 2.58536 8.63763 5.77456Z"/>
<path id="panda_1_baby_32_fill" d="M 8.63632 5.77543C 8.63632 8.96511 6.70301 11.5509 4.31816 11.5509C 1.93331 11.5509 0 8.96511 0 5.77543C 0 2.58575 1.93331 0 4.31816 0C 6.70301 0 8.63632 2.58575 8.63632 5.77543Z"/>
<path id="panda_1_baby_33_fill" d="M 8.62689 5.78169C 8.62689 8.97483 6.6957 11.5634 4.31345 11.5634C 1.9312 11.5634 0 8.97483 0 5.78169C 0 2.58855 1.9312 0 4.31345 0C 6.6957 0 8.62689 2.58855 8.62689 5.78169Z"/>
<path id="panda_1_baby_34_fill" d="M 8.62612 5.78221C 8.62612 8.97563 6.6951 11.5644 4.31306 11.5644C 1.93102 11.5644 0 8.97563 0 5.78221C 0 2.58878 1.93102 0 4.31306 0C 6.6951 0 8.62612 2.58878 8.62612 5.78221Z"/>
<path id="panda_1_baby_35_fill" d="M 105.808 57.2545C 105.808 94.8648 81.8396 120.476 52.6214 120.476C 23.4032 120.476 0 94.8648 0 57.2545C 0 19.6443 23.686 0 52.9042 0C 82.1224 0 105.808 19.6443 105.808 57.2545Z"/>
<path id="panda_1_baby_36_fill" fill-rule="evenodd" d="M 6.91448 93.8354C 5.95159 78.7393 8.89299 61.1392 16.3842 42.5874C 24.4184 22.6924 34.9457 8.62891 46.5082 0C 29.8334 2.93115 14.8315 14.7617 5.92131 36.8252C -2.69783 58.1694 -1.51131 78.6431 6.91448 93.8354Z"/>
<path id="panda_1_baby_37_fill" d="M 63.0535 1.56632C 63.0535 7.36465 49.1537 11.313 32.2096 11.313C 15.2656 11.313 0.805705 1.56632 7.4091e-09 0.336323C -0.000521384 -0.508695 27.5175 7.93467 44.4616 7.93467C 61.4056 7.93467 63.0535 -4.232 63.0535 1.56632Z"/>
<path id="panda_1_baby_38_fill" d="M 75.6728 1.28932C 75.6728 7.08708 55.4543 11.4331 34.4915 9.79286C 13.5287 8.15257 0.966956 1.28932 8.89193e-09 0.0594395C -0.000625732 -0.785496 33.0248 7.65705 53.36 7.65705C 73.6951 7.65705 75.673 -0.454927 75.6728 1.28932Z"/>
<path id="panda_1_baby_39_fill" d="M 75.66 0.670433C 75.66 3.76696 63.464 14.0126 43.1323 14.0126C 22.8006 14.0126 0.966792 0.670433 1.30343e-08 0.0135651C -0.000625622 -0.437707 22.5212 10.5206 42.8529 10.5206C 63.1846 10.5206 75.66 -2.42609 75.66 0.670433Z"/>
<path id="panda_1_baby_40_fill" d="M 58.1852 44.7677C 88.9369 20.596 90.5809 9.75722 78.2516 3.68028C 54.5936 -7.97474 16.2478 10.1541 4.99061 28.7137C -6.26656 47.2733 1.88146 78.0208 25.7895 83.8596C 49.6976 89.6985 36.6358 61.6947 58.1852 44.7677Z"/>
<path id="panda_1_baby_41_fill" d="M 12.0128 20.5955C 18.6472 20.5955 24.0255 15.985 24.0255 10.2977C 24.0255 4.61046 18.6472 0 12.0128 0C 5.3783 0 0 4.61046 0 10.2977C 0 15.985 5.3783 20.5955 12.0128 20.5955Z"/>
<path id="panda_1_baby_42_fill" d="M 11.804 21.0437C 18.3231 21.0437 23.6079 16.3329 23.6079 10.5219C 23.6079 4.7108 18.3231 0 11.804 0C 5.28481 0 0 4.7108 0 10.5219C 0 16.3329 5.28481 21.0437 11.804 21.0437Z"/>
<path id="panda_1_baby_43_fill" d="M 93.4721 39.5034C 96.3805 66.6367 73.9037 74.7244 47.4861 74.5022C 7.80634 74.1689 -3.04669 61.9193 0.69055 36.6933C 3.84612 15.3977 22.0185 0 47.4861 0C 76.0801 0.0185179 91.286 19.0364 93.4721 39.5034Z"/>
<path id="panda_1_baby_44_fill" d="M 32.6665 65.3888C 21.5673 62.1046 10.2858 51.9869 9.83982 40.5521C 9.03517 19.0528 22.5242 9.03212 31.3753 0C 14.5601 5.02299 3.13027 17.9531 0.692097 34.4156C -3.04999 59.6416 7.80303 71.9144 47.4876 72.2245C 73.7889 72.4421 96.1736 64.4285 93.5076 37.5775C 93.5076 74.2151 43.7657 68.673 32.6665 65.3888Z"/>
<path id="panda_1_baby_45_fill" d="M 22.6256 9.90253C 24.0224 15.534 22.1764 20.0041 11.0907 21.303C 1.55477 22.4217 5.42259e-06 16.5342 5.42259e-06 10.6515C 5.42259e-06 7.82654 1.16848 5.1173 3.24838 3.11976C 5.32828 1.12221 8.14925 -4.05057e-06 11.0907 -4.05057e-06C 17.216 -4.05057e-06 21.209 4.17622 22.6256 9.90253Z"/>
<path id="panda_1_baby_46_fill" d="M 5.68449 11.0982C 8.82395 11.0982 11.369 8.61376 11.369 5.54909C 11.369 2.48441 8.82395 0 5.68449 0C 2.54504 0 0 2.48441 0 5.54909C 0 8.61376 2.54504 11.0982 5.68449 11.0982Z"/>
<path id="panda_1_baby_47_fill" d="M 1.59893 3.12168C 2.48199 3.12168 3.19785 2.42287 3.19785 1.56084C 3.19785 0.69881 2.48199 0 1.59893 0C 0.715864 0 0 0.69881 0 1.56084C 0 2.42287 0.715864 3.12168 1.59893 3.12168Z"/>
<path id="panda_1_baby_48_fill" d="M 3.0525 5.95957C 4.73834 5.95957 6.10499 4.62547 6.10499 2.97979C 6.10499 1.3341 4.73834 0 3.0525 0C 1.36665 0 0 1.3341 0 2.97979C 0 4.62547 1.36665 5.95957 3.0525 5.95957Z"/>
<path id="panda_1_baby_49_fill" d="M 6.27132 6.66417C 9.73451 6.66417 12.5413 7.30843 12.5413 4.70818C 12.5413 2.10793 9.73384 0 6.27065 0C 2.80747 0 0 2.10793 0 4.70818C 0 7.30843 2.80814 6.66417 6.27132 6.66417Z"/>
<path id="panda_1_baby_50_fill" d="M 9.64041 1.89014C 9.64041 3.5217 7.09773 5.89621 4.72213 5.89621C 2.34654 5.89621 2.66046e-06 3.4525 2.66046e-06 1.82094C 2.66046e-06 0.189375 2.36833 -2.6674e-06 4.72213 -2.6674e-06C 7.07593 -2.6674e-06 9.64041 0.258572 9.64041 1.89014Z"/>
<path id="panda_1_baby_51_fill" d="M 8.01858 1.91967C 7.92777 3.2526 5.64201 5.52474 3.79311 5.50653C 1.86067 5.48832 -0.173481 3.3214 0.0117718 1.7736C 0.197025 0.225795 1.82798 0 3.79675 0C 5.76551 0 8.12392 0.35002 8.01858 1.91967Z"/>
<path id="panda_1_baby_52_fill" d="M 1.26771 2.30167C 1.96785 2.30167 2.53542 1.78642 2.53542 1.15084C 2.53542 0.515247 1.96785 0 1.26771 0C 0.567572 0 0 0.515247 0 1.15084C 0 1.78642 0.567572 2.30167 1.26771 2.30167Z"/>
<path id="panda_1_baby_53_fill" d="M 0.404322 9.90253C -0.9925 15.534 0.85349 20.0041 11.9392 21.303C 21.4751 22.4217 23.0299 16.5342 23.0299 10.6515C 23.0299 7.82654 21.8614 5.1173 19.7815 3.11976C 17.7016 1.12222 14.8806 -2.69456e-14 11.9392 4.84624e-28C 5.79419 -2.69456e-14 1.84557 4.17623 0.404322 9.90253Z"/>
<path id="panda_1_baby_54_fill" d="M 5.68449 11.0982C 8.82395 11.0982 11.369 8.61376 11.369 5.54909C 11.369 2.48441 8.82395 0 5.68449 0C 2.54503 0 0 2.48441 0 5.54909C 0 8.61376 2.54503 11.0982 5.68449 11.0982Z"/>
<path id="panda_1_baby_55_fill" d="M 1.59893 3.12168C 2.48199 3.12168 3.19785 2.42287 3.19785 1.56084C 3.19785 0.69881 2.48199 0 1.59893 0C 0.715867 0 0 0.69881 0 1.56084C 0 2.42287 0.715867 3.12168 1.59893 3.12168Z"/>
<path id="panda_1_baby_56_fill" d="M 3.0525 5.95957C 4.73834 5.95957 6.10499 4.62547 6.10499 2.97979C 6.10499 1.3341 4.73834 0 3.0525 0C 1.36665 0 0 1.3341 0 2.97979C 0 4.62547 1.36665 5.95957 3.0525 5.95957Z"/>
<path id="panda_1_baby_57_fill" d="M 22.4943 10.3505C 22.4943 16.0669 17.4588 13.2351 11.2471 13.2351C 5.03552 13.2351 0 16.0669 0 10.3505C 0 4.63408 5.03552 0 11.2471 0C 17.4588 0 22.4943 4.63408 22.4943 10.3505Z"/>
<path id="panda_1_baby_58_fill" fill-rule="evenodd" d="M 5.17121 10.6198C 8.63365 10.6198 10.4437 8.86661 10.4435 5.71196C 10.4438 2.55732 8.63349 -5.91463e-05 5.17105 1.02595e-09C 1.70909 -5.16879e-05 -0.000176693 2.5573 1.36997e-08 5.71195C 0.000149222 8.86648 1.70925 10.6198 5.17121 10.6198ZM 5.17242 9.71032C 7.59601 9.71023 9.56095 7.9201 9.5606 5.71194C 9.56072 3.50366 7.59594 1.71358 5.17279 1.71344C 2.74917 1.71341 0.78426 3.50366 0.784137 5.71194C 0.784491 7.9201 2.74879 9.71029 5.17242 9.71032Z"/>
<path id="panda_1_baby_59_fill" d="M 9.21897 3.50087C 9.21897 5.43435 7.15524 7.00175 4.60949 7.00175C 2.06374 7.00175 0 5.43435 0 3.50087C 0 1.56739 2.06374 0 4.60949 0C 7.15524 0 9.21897 1.56739 9.21897 3.50087Z"/>
<path id="panda_1_baby_60_fill" d="M 3.42777 9.26058C 0.71194 6.08994 -0.298152 4.22809 0.0745774 0.550178C 0.447093 -0.290819 2.23547 -0.0675047 2.45901 0.550146C 0.477075 4.11243 1.40711 5.98489 3.42777 9.26058Z"/>
</defs>
</svg>
