<svg width="335" height="338" viewBox="0 0 335 338" version="1.1" xmlns="http://www.w3.org/2000/svg" xmlns:xlink="http://www.w3.org/1999/xlink">
    <style>
        #panda_eat_shadow { filter: url(#panda_eat_filter0_d); }
        #panda_eat_shadow_left { filter: url(#panda_eat_filter1_d); }
        #panda_eat_shadow_right { filter: url(#panda_eat_filter2_d); }

        <!--mouth-->
        #panda_eat_mouth {
        animation: panda_eat_mouth 0.8s infinite alternate ease;
        }
        @keyframes panda_eat_mouth {
        0%   { transform: scale(1); }
        100%   { transform: scale(1.3); }
        }

        <!--bamboo-->
        #panda_eat_41_fill, #panda_eat_42_fill,
        #panda_eat_39_fill, #panda_eat_40_fill,
        #panda_eat_32_fill, #panda_eat_33_fill
        {
        animation: leaf_2 1s infinite alternate ease;
        }
        #panda_eat_30_fill, #panda_eat_31_fill
        {
        transform-origin: right;
        animation: leaf_2 1s infinite alternate ease;
        }

        @keyframes leaf_2 {
        0%   { transform: rotate(0deg); }
        100%   { transform: rotate(25deg); }
        }

        #panda_eat_27_stroke, #panda_eat_bamboo_small,
        #panda_eat_45_fill, #panda_eat_46_fill,
        #panda_eat_37_fill, #panda_eat_38_fill,
        #panda_eat_35_fill, #panda_eat_36_fill
        {
        transform-origin: bottom;
        animation: leaf_2_stroke 1s infinite alternate ease;
        animation-delay: 0.5s;
        }

        @keyframes leaf_2_stroke {
        0%   { transform: rotate(0deg); }
        100%   { transform: scaleY(0.98) rotate(3deg); }
        }

        <!--hand-left-->
        #panda_eat_left_hand
        {
        transform-origin: bottom;
        animation: hand_2_eat 1s infinite alternate ease;
        }

        @keyframes hand_2_eat {
        0%   { transform: rotate(0deg); }
        100%   { transform: rotate(1.5deg); }
        }

        <!--hand-right-->
        #panda_eat_43_fill
        {
        transform-origin: bottom;
        animation: hand_2_tummy 6s infinite ease;
        }

        @keyframes hand_2_tummy {
        0%   { transform: rotate(0deg); }
        25%   { transform: rotate(45deg) translate(-5px, -10px); }
        35%   { transform: rotate(55deg) translate(5px, -8px); }
        45%   { transform: rotate(44deg) translate(-4px, -11px); }
        55%   { transform: rotate(54deg) translate(4px, -9px); }
        65%   { transform: rotate(46deg) translate(-6px, -9px); }
        75%   { transform: rotate(56deg) translate(4px, -7px); }
        85%   { transform: rotate(42deg); translate(-5px, -10px); }
        100%   { transform: rotate(0); }
        }

        <!--eye and near-->
        #panda_eat_16_fill, #panda_eat_9_fill, #panda_eat_6_fill, #panda_eat_5_fill, #panda_eat_4_fill {
        transform-origin: center;
        animation: eye_2 1s infinite alternate ease;
        }

        @keyframes eye_2 {
        0%   { transform: rotateX(0deg); }
        100%   { transform: rotateX(15deg); }
        }

    </style>
<g id="Canvas" transform="translate(6639 -1645)">
<g id="panda with bamboo">
<g id="Panda eats">
<g id="panda_eat_shadow">
<use xlink:href="#panda_eat_0_fill" transform="translate(-6639 1928)" fill="#333333" fill-opacity="0.05"/>
</g>
<g id="leaf_three">
<use xlink:href="#panda_eat_1_fill" transform="translate(-6498.03 1804.51)" fill="#91CE6A"/>
</g>
<g id="leaf_two">
<use xlink:href="#panda_eat_2_fill" transform="translate(-6497.3 1804.56)" fill="#80B25F"/>
</g>
<g id="body_eating_panda">
<g id="body">
<use xlink:href="#panda_eat_3_fill" transform="translate(-6507.33 1784.85)" fill="#E2E2E2"/>
</g>
<g id="body">
<use xlink:href="#panda_eat_4_fill" transform="translate(-6490.62 1793.69)" fill="#FFFFFF"/>
</g>
</g>
<g id="left ear">
<use xlink:href="#panda_eat_5_fill" transform="translate(-6505.01 1647.88)" fill="#383D42"/>
</g>
<g id="right ear">
<use xlink:href="#panda_eat_6_fill" transform="translate(-6379.85 1645)" fill="#383D42"/>
</g>
<g id="head_eating_panda">
<g id="head">
<use xlink:href="#panda_eat_7_fill" transform="translate(-6522.59 1661.91)" fill="#FFFFFF"/>
</g>
<g id="head_shadow">
<use xlink:href="#panda_eat_8_fill" transform="translate(-6522.63 1667.08)" fill="#E2E2E2"/>
</g>
</g>
<g id="left_eye">
<g id="Vector">
<use xlink:href="#panda_eat_9_fill" transform="translate(-6500.6 1709.81)" fill="#383D42"/>
</g>
<g id="Vector">
<use xlink:href="#panda_eat_10_fill" transform="translate(-6484 1724)" fill="#27272B"/>
</g>
<g id="Vector">
<use xlink:href="#panda_eat_11_fill" transform="translate(-6468.62 1731.89)" fill="#FFFFFF"/>
</g>
<g id="Vector">
<use xlink:href="#panda_eat_12_fill" transform="translate(-6481.77 1734.23)" fill="#FFFFFF"/>
</g>
</g>
<g id="nose">
<g id="Vector">
<use xlink:href="#panda_eat_13_fill" transform="translate(-6445 1747)" fill="#2C2D32"/>
</g>
<g id="Vector">
<use xlink:href="#panda_eat_14_fill" transform="translate(-6441.19 1747.23)" fill="#364144"/>
</g>
<g id="Vector">
<use xlink:href="#panda_eat_15_fill" transform="translate(-6430.7 1749.53)" fill="#697175"/>
</g>
</g>
<g id="right_eye">
<g id="Vector">
<use xlink:href="#panda_eat_16_fill" transform="translate(-6415.3 1709.81)" fill="#383D42"/>
</g>
<g id="Vector">
<use xlink:href="#panda_eat_17_fill" transform="translate(-6408 1724)" fill="#27272B"/>
</g>
<g id="Vector">
<use xlink:href="#panda_eat_18_fill" transform="translate(-6395.09 1731.89)" fill="#FFFFFF"/>
</g>
<g id="Vector">
<use xlink:href="#panda_eat_19_fill" transform="translate(-6407.97 1734.23)" fill="#FFFFFF"/>
</g>
</g>
<g id="left_leg">
<use xlink:href="#panda_eat_20_fill" transform="translate(-6492.58 1921.13)" fill="#383D42"/>
</g>
<g id="right_leg">
<use xlink:href="#panda_eat_21_fill" transform="translate(-6404.56 1917.83)" fill="#383D42"/>
</g>
<g id="panda_eat_shadow_left" opacity="0.2">
<use xlink:href="#panda_eat_22_fill" transform="translate(-6479.05 1948.77)" fill="#22252B" fill-opacity="0.5"/>
</g>
<g id="panda_eat_shadow_right" opacity="0.2">
<use xlink:href="#panda_eat_23_fill" transform="translate(-6404.99 1948.77)" fill="#22252B" fill-opacity="0.5"/>
</g>
<g id="panda_eat_mouth">
<use xlink:href="#panda_eat_24_fill" transform="translate(-6436.53 1781.58)" fill="#383D42"/>
</g>
<g id="panda_eat_bamboo">
<g id="Vector">
<use xlink:href="#panda_eat_25_fill" transform="matrix(0.708639 0.705724 0.677057 -0.735777 -6477.37 1784.78)" fill="#74BD5B"/>
</g>
<g id="Vector">
<use xlink:href="#panda_eat_26_fill" transform="matrix(0.708639 0.705724 0.677057 -0.735777 -6477.34 1784.77)" fill="#74BD5B"/>
</g>
<g id="Vector">
<use xlink:href="#panda_eat_27_stroke" transform="matrix(0.728724 0.68497 0.692197 -0.721556 -6458.59 1788.75)" fill="#74BD5B"/>
</g>
<g id="Vector">
<use xlink:href="#panda_eat_28_fill" transform="matrix(0.728724 0.68497 0.692197 -0.721556 -6462.83 1798.67)" fill="#74BD5B"/>
</g>
<g id="Vector">
<use xlink:href="#panda_eat_29_fill" transform="matrix(0.728724 0.684971 0.692196 -0.721557 -6462 1799.45)" fill="#74BD5B"/>
</g>
<g id="Vector">
<use xlink:href="#panda_eat_30_fill" transform="matrix(0.728723 0.684971 0.692196 -0.721557 -6465.46 1773.98)" fill="#74BD5B"/>
</g>
<g id="Vector">
<use xlink:href="#panda_eat_31_fill" transform="matrix(0.728723 0.684971 0.692196 -0.721557 -6465.38 1774.01)" fill="#74BD5B"/>
</g>
<g id="Vector">
<use xlink:href="#panda_eat_32_fill" transform="matrix(0.128413 0.991682 0.992974 -0.118679 -6453.62 1795.88)" fill="#74BD5B"/>
</g>
<g id="Vector">
<use xlink:href="#panda_eat_33_fill" transform="matrix(0.128412 0.991682 0.992974 -0.11868 -6453.42 1795.99)" fill="#74BD5B"/>
</g>
<g id="Vector">
<use xlink:href="#panda_eat_34_stroke" transform="matrix(0.128412 0.991682 0.992974 -0.11868 -6448.61 1785.14)" fill="#74BD5B"/>
</g>
<g id="Vector">
<use xlink:href="#panda_eat_35_fill" transform="matrix(0.128413 0.991682 0.992974 -0.11868 -6465.22 1797.19)" fill="#74BD5B"/>
</g>
<g id="Vector">
<use xlink:href="#panda_eat_36_fill" transform="matrix(0.128412 0.991682 0.992974 -0.11868 -6465.1 1798.12)" fill="#74BD5B"/>
</g>
<g id="Vector">
<use xlink:href="#panda_eat_37_fill" transform="matrix(0.128412 0.991682 0.992974 -0.11868 -6453.62 1792.3)" fill="#74BD5B"/>
</g>
<g id="Vector">
<use xlink:href="#panda_eat_38_fill" transform="matrix(0.12841 0.991682 0.992973 -0.118682 -6453.59 1792.38)" fill="#74BD5B"/>
</g>
<g id="Vector">
<use xlink:href="#panda_eat_39_fill" transform="matrix(0.128413 0.991682 0.992974 -0.118678 -6444.11 1792.44)" fill="#74BD5B"/>
</g>
<g id="Vector">
<use xlink:href="#panda_eat_40_fill" transform="matrix(0.128412 0.991682 0.992974 -0.11868 -6444.13 1792.63)" fill="#74BD5B"/>
</g>
<g id="Vector">
<use xlink:href="#panda_eat_41_fill" transform="matrix(0.128412 0.991682 0.992974 -0.11868 -6436.15 1784.35)" fill="#74BD5B"/>
</g>
<g id="Vector">
<use xlink:href="#panda_eat_42_fill" transform="matrix(0.128412 0.991682 0.992974 -0.11868 -6436.1 1784.64)" fill="#74BD5B"/>
</g>
</g>
<g id="panda_eat_right_hand">
<use xlink:href="#panda_eat_43_fill" transform="matrix(-0.999991 0.00417675 -0.00420485 -0.999991 -6324.2 1901.43)" fill="#383D42"/>
</g>
<g id="panda_eat_left_hand">
<use xlink:href="#panda_eat_44_fill" transform="translate(-6512.83 1772.44)" fill="#383D42"/>
</g>
<g id="leaf_bamboo_two">
<use xlink:href="#panda_eat_45_fill" transform="matrix(0.754438 0.656372 0.688376 -0.725354 -6474.21 1803.13)" fill="#74BD5B"/>
</g>
<g id="leaf_bamboo_one">
<use xlink:href="#panda_eat_46_fill" transform="matrix(0.754438 0.656372 0.688376 -0.725353 -6474.21 1803.15)" fill="#74BD5B"/>
</g>
</g>
<g id="ground">
<g id="Ellipse">
<use xlink:href="#panda_eat_47_fill" transform="translate(-6606 1941.08)" fill="#9E9B78"/>
</g>
<g id="Ellipse">
<use xlink:href="#panda_eat_48_fill" transform="translate(-6592.79 1944.31)" fill="#949172"/>
</g>
</g>
<g id="panda_eat_bamboo_small">
<g id="Vector">
<use xlink:href="#panda_eat_49_fill" transform="matrix(0.864879 0.50198 -0.50752 0.86164 -6591.01 1860.92)" fill="#74BD5B"/>
</g>
<g id="Vector">
<use xlink:href="#panda_eat_50_fill" transform="matrix(0.864879 0.50198 -0.50752 0.86164 -6591.01 1860.97)" fill="#69AD51"/>
</g>
<g id="Vector">
<use xlink:href="#panda_eat_51_stroke" transform="matrix(0.864879 0.50198 -0.50752 0.86164 -6563.46 1893.29)" fill="#74BD5B"/>
</g>
<g id="Vector">
<use xlink:href="#panda_eat_52_fill" transform="matrix(0.864879 0.50198 -0.50752 0.86164 -6543.81 1857.46)" fill="#74BD5B"/>
</g>
<g id="Vector">
<use xlink:href="#panda_eat_53_fill" transform="matrix(0.864879 0.50198 -0.50752 0.86164 -6543.78 1857.45)" fill="#74BD5B"/>
</g>
<g id="Vector">
<use xlink:href="#panda_eat_54_fill" transform="matrix(0.864879 0.50198 -0.50752 0.86164 -6552.31 1884.32)" fill="#74BD5B"/>
</g>
<g id="Vector">
<use xlink:href="#panda_eat_55_fill" transform="matrix(0.864879 0.501981 -0.507519 0.86164 -6550.99 1885.09)" fill="#74BD5B"/>
</g>
<g id="Vector">
<use xlink:href="#panda_eat_56_fill" transform="matrix(0.864879 0.50198 -0.50752 0.86164 -6584.98 1890.04)" fill="#74BD5B"/>
</g>
<g id="Vector">
<use xlink:href="#panda_eat_57_fill" transform="matrix(0.864879 0.50198 -0.50752 0.86164 -6584.92 1890.13)" fill="#69AD51"/>
</g>
<g id="Vector">
<use xlink:href="#panda_eat_58_fill" transform="matrix(0.864879 0.50198 -0.50752 0.86164 -6594.33 1908.07)" fill="#74BD5B"/>
</g>
<g id="Vector">
<use xlink:href="#panda_eat_59_fill" transform="matrix(0.864879 0.50198 -0.50752 0.86164 -6594.35 1908.16)" fill="#69AD51"/>
</g>
<g id="Vector">
<use xlink:href="#panda_eat_60_fill" transform="matrix(0.86488 0.501979 -0.507521 0.861639 -6552.13 1913.26)" fill="#74BD5B"/>
</g>
<g id="Vector">
<use xlink:href="#panda_eat_61_fill" transform="matrix(0.864879 0.50198 -0.50752 0.86164 -6550.81 1914.05)" fill="#74BD5B"/>
</g>
<g id="Vector">
<use xlink:href="#panda_eat_62_fill" transform="matrix(0.864879 0.50198 -0.50752 0.86164 -6531.11 1914.1)" fill="#74BD5B"/>
</g>
<g id="Vector">
<use xlink:href="#panda_eat_63_fill" transform="matrix(0.864879 0.50198 -0.50752 0.86164 -6531.08 1914.4)" fill="#74BD5B"/>
</g>
<g id="Vector">
<use xlink:href="#panda_eat_64_stroke" transform="matrix(0.864879 0.50198 -0.50752 0.86164 -6548.67 1913.58)" fill="#74BD5B"/>
</g>
<g id="Vector">
<use xlink:href="#panda_eat_65_fill" transform="matrix(0.864879 0.50198 -0.50752 0.86164 -6523.39 1900.8)" fill="#74BD5B"/>
</g>
<g id="Vector">
<use xlink:href="#panda_eat_66_fill" transform="matrix(0.864879 0.50198 -0.50752 0.86164 -6522.31 1901.43)" fill="#74BD5B"/>
</g>
<g id="Vector">
<use xlink:href="#panda_eat_67_fill" transform="matrix(0.864879 0.501981 -0.507519 0.861641 -6535.5 1912.25)" fill="#74BD5B"/>
</g>
<g id="Vector">
<use xlink:href="#panda_eat_68_fill" transform="matrix(0.86488 0.501979 -0.507521 0.861639 -6535.43 1912.33)" fill="#74BD5B"/>
</g>
<g id="Vector">
<use xlink:href="#panda_eat_69_fill" transform="matrix(0.864879 0.50198 -0.50752 0.86164 -6540.34 1923.78)" fill="#74BD5B"/>
</g>
<g id="Vector">
<use xlink:href="#panda_eat_70_fill" transform="matrix(0.864879 0.50198 -0.50752 0.86164 -6540.1 1923.86)" fill="#74BD5B"/>
</g>
<g id="Vector">
<use xlink:href="#panda_eat_71_fill" transform="matrix(0.864879 0.50198 -0.50752 0.86164 -6554.48 1929.2)" fill="#74BD5B"/>
</g>
<g id="Vector">
<use xlink:href="#panda_eat_72_fill" transform="matrix(0.864879 0.50198 -0.50752 0.86164 -6554.15 1929.41)" fill="#74BD5B"/>
</g>
</g>
</g>
</g>
<defs>
    <filter id="panda_eat_filter0_d" filterUnits="userSpaceOnUse" x="-6649" y="1918" width="355" height="75" color-interpolation-filters="sRGB">
        <feGaussianBlur stdDeviation="3"/>
    </filter>
    <filter id="panda_eat_filter1_d" filterUnits="userSpaceOnUse" x="-6490" y="1938" width="70" height="34" color-interpolation-filters="sRGB">
        <feGaussianBlur stdDeviation="3"/>
    </filter>
    <filter id="panda_eat_filter2_d" filterUnits="userSpaceOnUse" x="-6415" y="1938" width="69" height="34" color-interpolation-filters="sRGB">
        <feGaussianBlur stdDeviation="3"/>
    </filter>
<path id="panda_eat_0_fill" d="M 335 27.5C 335 42.6878 260.008 55 167.5 55C 74.9923 55 0 42.6878 0 27.5C 0 12.3122 74.9923 0 167.5 0C 260.008 0 335 12.3122 335 27.5Z"/>
<path id="panda_eat_1_fill" d="M 0.487654 31.8841C -4.67178 26.1265 32.8043 -0.240443 33.0633 0.0016487C 33.3224 0.243741 5.96011 38.1469 0.487654 31.8841Z"/>
<path id="panda_eat_2_fill" d="M 28.8302 2.30515L 9.22322e-06 32.1245C 6.00136 37.0506 32.4785 0.147372 32.3274 1.15639e-05C 31.1125 0.694938 29.9444 1.46489 28.8302 2.30515L 28.8302 2.30515Z"/>
<path id="panda_eat_3_fill" d="M 178.2 87.8463C 178.2 118.045 151.734 172.105 124.695 171.842C 110.394 171.705 108.958 143.885 90.8028 142.243C 69.0102 140.275 69.0102 174.115 50.8658 171.368C 25.9105 167.621 0.00539733 115.708 0.00539733 87.8463C -0.124295 76.356 2.08448 64.9547 6.50388 54.3024C 10.9233 43.6501 17.4655 33.9585 25.7518 25.7885C 34.0382 17.6186 43.904 11.1325 54.7783 6.70591C 65.6525 2.27929 77.3192 -9.60614e-06 89.1028 -9.60614e-06C 100.887 -9.60614e-06 112.553 2.27929 123.427 6.70591C 134.302 11.1325 144.167 17.6186 152.454 25.7885C 160.74 33.9585 167.282 43.6501 171.702 54.3024C 176.121 64.9547 178.33 76.356 178.2 87.8463L 178.2 87.8463Z"/>
<path id="panda_eat_4_fill" d="M 159.236 80.0066C 155.037 102.195 126.013 138.53 103.756 134.446C 91.9799 132.288 87.9862 122.92 75.2819 119.194C 55.1299 113.279 45.7825 138.898 21.831 127.457C 4.38823 119.12 -6.99923 72.5228 4.89554 46.8611C 18.9275 16.6101 75.7245 -8.36743 111.97 2.65302C 148.216 13.6735 165 49.7978 159.236 80.0066Z"/>
<path id="panda_eat_5_fill" d="M 25.4868 54.7946C 39.5628 54.7946 50.9736 42.5284 50.9736 27.3973C 50.9736 12.2662 39.5628 0 25.4868 0C 11.4108 0 0 12.2662 0 27.3973C 0 42.5284 11.4108 54.7946 25.4868 54.7946Z"/>
<path id="panda_eat_6_fill" d="M 29.8988 58.3126C 46.4115 58.3126 59.7976 45.2589 59.7976 29.1563C 59.7976 13.0537 46.4115 0 29.8988 0C 13.3862 0 0 13.0537 0 29.1563C 0 45.2589 13.3862 58.3126 29.8988 58.3126Z"/>
<path id="panda_eat_7_fill" d="M 208.142 89.8161C 214.618 151.507 164.567 169.896 105.741 169.391C 17.383 168.633 -6.78432 140.782 1.5377 83.427C 8.56447 35.0086 49.0304 -8.99416e-06 105.741 -8.99416e-06C 169.414 0.0420939 203.274 43.2818 208.142 89.8161Z"/>
<path id="panda_eat_8_fill" d="M 50.5666 144.876C 32.5194 133.656 19.1782 111.12 18.1852 85.1216C 16.3934 36.2401 50.1564 20.5357 69.8659 -5.13952e-06C 32.4222 11.4204 6.97043 40.8188 1.54115 78.2483C -6.79167 135.603 17.3757 163.507 105.745 164.212C 164.312 164.707 214.157 146.487 208.221 85.4374C 188.673 168.749 92.5869 171.001 50.5666 144.876Z"/>
<path id="panda_eat_9_fill" d="M 49.4788 21.9883C 52.5334 34.4928 48.4966 44.4186 24.2537 47.3027C 3.40006 49.7867 1.18584e-05 36.7138 1.18584e-05 23.6513C 1.18584e-05 17.3786 2.55529 11.3628 7.10373 6.92733C 11.6522 2.49184 17.8212 -8.99416e-06 24.2537 -8.99416e-06C 37.6488 -8.99416e-06 46.381 9.27318 49.4788 21.9883Z"/>
<path id="panda_eat_10_fill" d="M 13 26C 20.1797 26 26 20.1797 26 13C 26 5.8203 20.1797 2.53616e-06 13 2.53616e-06C 5.8203 2.53616e-06 0 5.8203 0 13C 0 20.1797 5.8203 26 13 26Z"/>
<path id="panda_eat_11_fill" d="M 3.32449 6.48385C 5.16056 6.48385 6.64898 5.03239 6.64898 3.24192C 6.64898 1.45146 5.16056 3.2122e-06 3.32449 3.2122e-06C 1.48843 3.2122e-06 0 1.45146 0 3.24192C 0 5.03239 1.48843 6.48385 3.32449 6.48385Z"/>
<path id="panda_eat_12_fill" d="M 6.34675 12.3783C 9.85197 12.3783 12.6935 9.6073 12.6935 6.18914C 12.6935 2.77097 9.85197 -3.53342e-06 6.34675 -3.53342e-06C 2.84154 -3.53342e-06 0 2.77097 0 6.18914C 0 9.6073 2.84154 12.3783 6.34675 12.3783Z"/>
<path id="panda_eat_13_fill" d="M 24 4.80852C 24 8.95923 17.6699 15 11.7558 15C 5.84176 15 6.62326e-06 8.78319 6.62326e-06 4.63248C 6.62326e-06 0.481772 5.89601 -6.78587e-06 11.7558 -6.78587e-06C 17.6157 -6.78587e-06 24 0.657809 24 4.80852Z"/>
<path id="panda_eat_14_fill" d="M 19.7158 4.63248C 19.4897 8.02346 14.0459 14.055 9.44302 14.0086C 4.63217 13.9623 -0.431887 8.44965 0.0293038 4.51203C 0.490494 0.574417 4.55079 -6.78587e-06 9.45207 -6.78587e-06C 14.3534 -6.78587e-06 19.9781 0.639277 19.7158 4.63248Z"/>
<path id="panda_eat_15_fill" d="M 3.15599 5.85546C 4.89899 5.85546 6.31198 4.54467 6.31198 2.92773C 6.31198 1.31079 4.89899 -3.11019e-06 3.15599 -3.11019e-06C 1.41298 -3.11019e-06 0 1.31079 0 2.92773C 0 4.54467 1.41298 5.85546 3.15599 5.85546Z"/>
<path id="panda_eat_16_fill" d="M 0.884193 21.9883C -2.17045 34.4929 1.86646 44.4186 26.1093 47.3027C 46.963 49.7867 50.363 36.7138 50.363 23.6513C 50.363 17.3786 47.8077 11.3628 43.2593 6.92733C 38.7108 2.49185 32.5418 -5.98319e-14 26.1093 1.07609e-27C 12.6711 -5.98319e-14 4.03598 9.27319 0.884193 21.9883Z"/>
<path id="panda_eat_17_fill" d="M 13 26C 20.1797 26 26 20.1797 26 13C 26 5.82029 20.1797 0 13 0C 5.8203 0 0 5.82029 0 13C 0 20.1797 5.8203 26 13 26Z"/>
<path id="panda_eat_18_fill" d="M 3.3245 6.48385C 5.16056 6.48385 6.64897 5.03239 6.64897 3.24192C 6.64897 1.45146 5.16056 3.2122e-06 3.3245 3.2122e-06C 1.48843 3.2122e-06 -2.3058e-06 1.45146 -2.3058e-06 3.24192C -2.3058e-06 5.03239 1.48843 6.48385 3.3245 6.48385Z"/>
<path id="panda_eat_19_fill" d="M 6.34676 12.3783C 9.85197 12.3783 12.6935 9.6073 12.6935 6.18914C 12.6935 2.77097 9.85197 -3.53342e-06 6.34676 -3.53342e-06C 2.84154 -3.53342e-06 -2.6352e-06 2.77097 -2.6352e-06 6.18914C -2.6352e-06 9.6073 2.84154 12.3783 6.34676 12.3783Z"/>
<path id="panda_eat_20_fill" d="M 36.1052 35.0823C 48.68 36.9874 52.5442 21.3988 60.931 12.2099C 48.4857 19.4726 19.2453 8.35742 3.95281e-06 -2.05581e-05C 9.76839 17.9779 23.034 33.114 36.1052 35.0823Z"/>
<path id="panda_eat_21_fill" d="M -9.22322e-06 15.6097C 8.01978 24.3039 11.6465 38.7663 21.9438 38.8716C 37.5624 39.0295 52.9975 21.041 63.2409 2.82674e-05C 42.4736 16.8833 20.2815 22.1251 -9.22322e-06 15.6097Z"/>
<path id="panda_eat_22_fill" d="M 24.0442 12.8835C 37.3234 12.8835 48.0883 9.99943 48.0883 6.44175C 48.0883 2.88407 37.3234 0 24.0442 0C 10.7649 0 0 2.88407 0 6.44175C 0 9.99943 10.7649 12.8835 24.0442 12.8835Z"/>
<path id="panda_eat_23_fill" d="M 24.0442 12.8835C 37.3234 12.8835 48.0883 9.99943 48.0883 6.44175C 48.0883 2.88407 37.3234 0 24.0442 0C 10.7649 0 0 2.88407 0 6.44175C 0 9.99943 10.7649 12.8835 24.0442 12.8835Z"/>
<path id="panda_eat_24_fill" d="M 2.88194 5.62075C 4.4736 5.62075 5.76389 4.36249 5.76389 2.81036C 5.76389 1.25824 4.4736 -5.78196e-06 2.88194 -5.78196e-06C 1.29029 -5.78196e-06 0 1.25824 0 2.81036C 0 4.36249 1.29029 5.62075 2.88194 5.62075Z"/>
<path id="panda_eat_25_fill" d="M 17.8882 11.693C 19.0075 18.4623 0.0727967 0.357311 0.000249888 0.0170587C -0.0722969 -0.323193 16.6963 4.45822 17.8882 11.693Z"/>
<path id="panda_eat_26_fill" d="M 1.7619 1.7781L 17.8258 11.3589C 16.2402 4.28523 -0.0310533 -0.173855 3.81742e-05 0.00522441C 0.0311297 0.184304 0.684063 0.739434 1.7619 1.7781Z"/>
<path id="panda_eat_27_stroke" d="M 15.6371 20.1944C 10.3722 13.5235 9.26926 12.2089 8.17699 10.6221C 7.04937 8.98391 6.01897 7.19303 0.830971 -0.556316L -0.830971 0.556316C 4.26843 8.17331 5.42335 10.149 6.52956 11.7561C 7.67113 13.4145 8.85052 14.8237 14.0671 21.4334L 15.6371 20.1944Z"/>
<path id="panda_eat_28_fill" d="M 1.06618 17.4798C -2.32548 20.1718 3.44597 0.150706 3.59588 0.0011555C 3.74578 -0.148395 4.70143 14.5262 1.06618 17.4798Z"/>
<path id="panda_eat_29_fill" d="M 1.87387 1.88835L 2.74489e-05 17.3482C 3.4479 14.1889 2.47348 -0.0744619 2.37979 0.000313462C 2.2861 0.0750888 2.21116 0.748028 1.87387 1.88835Z"/>
<path id="panda_eat_30_fill" d="M 20.8011 1.58021C 23.1809 5.71155 0.188788 3.87955 0.001404 3.67391C -0.18598 3.46828 18.2901 -2.86892 20.8011 1.58021Z"/>
<path id="panda_eat_31_fill" d="M 2.08088 3.90017L 20.6132 1.37649C 17.69 -2.69877 -0.148964 3.56367 0.00094389 3.65714C 0.688782 3.77949 1.38332 3.86065 2.08088 3.90017L 2.08088 3.90017Z"/>
<path id="panda_eat_32_fill" d="M 0.0554777 7.0754C -1.25065 11.1846 20.9283 0.209962 21.0037 0.00951129C 21.079 -0.190939 1.41184 2.79078 0.0554777 7.0754Z"/>
<path id="panda_eat_33_fill" d="M 18.8132 1.005L -2.75952e-05 6.89317C 1.85869 2.60855 20.9231 -0.0975335 20.8728 0.00269163C 20.8226 0.102917 20.0691 0.378597 18.8132 1.005Z"/>
<path id="panda_eat_34_stroke" d="M 0.163549 14.5793C 3.82837 11.4119 5.22075 9.80641 6.4505 7.9778C 7.67775 6.15289 8.71017 4.16266 11.7155 0.149862L 11.3152 -0.149862C 8.30349 3.87157 7.2339 5.9169 6.0356 7.69877C 4.83978 9.47693 3.48304 11.0495 -0.163403 14.201L 0.163549 14.5793Z"/>
<path id="panda_eat_35_fill" d="M 0.788968 19.093C -1.34604 19.569 1.51735 0.0251303 1.61782 7.40054e-05C 1.71829 -0.0249823 3.12492 18.7422 0.788968 19.093Z"/>
<path id="panda_eat_36_fill" d="M 0.427029 1.80405L -6.13227e-06 19.0679C 2.16012 18.0907 0.778666 -0.0249814 0.72843 7.49058e-05C 0.678195 0.0251312 0.577736 0.701578 0.427029 1.80405Z"/>
<path id="panda_eat_37_fill" d="M 1.75123 10.1491C 3.93648 11.7026 0.219067 0.126597 0.118595 0.00131527C 0.0181244 -0.123966 -0.484246 8.49537 1.75123 10.1491Z"/>
<path id="panda_eat_38_fill" d="M 0.514634 1.05231L 1.67003 10.0225C -0.565452 8.1934 0.0625292 -1.22345e-05 0.137882 -1.22345e-05C 0.213236 -1.22345e-05 0.313691 0.400846 0.514634 1.05231Z"/>
<path id="panda_eat_39_fill" d="M 0.110422 0.911577C -1.42176 3.41721 13.4982 2.23954 13.5986 2.13931C 13.6991 2.03909 1.74308 -1.66922 0.110422 0.911577Z"/>
<path id="panda_eat_40_fill" d="M 12.0063 2.25729L 1.22645e-05 0.803983C 1.88384 -1.57636 13.438 2.08193 13.4129 2.13204L 12.0063 2.25729Z"/>
<path id="panda_eat_41_fill" d="M 0.165577 1.14749C -2.12014 4.63032 20.0086 4.35462 20.1091 4.20429C 20.2096 4.05395 2.55176 -2.61095 0.165577 1.14749Z"/>
<path id="panda_eat_42_fill" d="M 17.7583 4.2654L 0 0.983037C 2.81319 -2.42462 19.9184 4.11499 19.843 4.19016C 19.1501 4.25533 18.4541 4.2805 17.7583 4.2654Z"/>
<path id="panda_eat_43_fill" d="M 35.149 41.5623C 53.7257 19.1213 54.7188 9.05861 47.2708 3.41677C 32.9794 -7.40376 9.81509 9.42703 3.01477 26.6578C -3.78556 43.8885 1.13656 72.4345 15.5792 77.8553C 30.0218 83.2761 22.1312 57.2774 35.149 41.5623Z"/>
<path id="panda_eat_44_fill" d="M 35.1478 41.562C 53.7239 19.1212 54.717 9.05855 47.2692 3.41675C 32.9783 -7.4037 9.81476 9.42697 3.01467 26.6576C -3.78543 43.8882 1.13653 72.434 15.5786 77.8548C 30.0207 83.2755 22.1305 57.277 35.1478 41.562Z"/>
<path id="panda_eat_45_fill" d="M 1.99401 23.036C 5.23297 23.5991 0.90825 0.0524849 0.761025 0.000100817C 0.613799 -0.0522833 -1.4842 22.4729 1.99401 23.036Z"/>
<path id="panda_eat_46_fill" d="M 1.18767 2.18706L 1.83179 22.9966C -1.44398 21.8311 0.653993 -0.0130933 0.746009 2.68884e-06C 0.838025 0.0130987 0.91162 0.851262 1.18767 2.18706Z"/>
<path id="panda_eat_47_fill" d="M 99.062 13.4583C 99.062 20.8912 76.8862 26.9167 49.531 26.9167C 22.1758 26.9167 0 20.8912 0 13.4583C 0 6.0255 22.1758 0 49.531 0C 76.8862 0 99.062 6.0255 99.062 13.4583Z"/>
<path id="panda_eat_48_fill" d="M 70.7586 9.15167C 70.7586 14.206 54.9187 18.3033 35.3793 18.3033C 15.8398 18.3033 0 14.206 0 9.15167C 0 4.09734 15.8398 0 35.3793 0C 54.9187 0 70.7586 4.09734 70.7586 9.15167Z"/>
<path id="panda_eat_49_fill" d="M 43.0263 16.0882C 45.7186 25.4019 0.175097 0.491617 0.000601054 0.0234708C -0.173895 -0.444675 40.1596 6.13398 43.0263 16.0882Z"/>
<path id="panda_eat_50_fill" d="M 4.23789 2.44645L 42.8763 15.6285C 39.0623 5.89596 -0.0746923 -0.239205 9.18201e-05 0.00718817C 0.0748759 0.253581 1.64537 1.01737 4.23789 2.44645Z"/>
<path id="panda_eat_51_stroke" d="M 38.2846 47.3505C 21.7981 31.496 14.5284 19.7149 0.828576 -0.559877L -0.828576 0.559877C 12.8425 20.7921 20.2305 32.7632 36.8983 48.792L 38.2846 47.3505Z"/>
<path id="panda_eat_52_fill" d="M 2.70098 43.3407C 7.08831 44.4001 1.23027 0.0987468 1.03084 0.00018968C 0.83142 -0.0983674 -2.01042 42.2812 2.70098 43.3407Z"/>
<path id="panda_eat_53_fill" d="M 1.60875 4.1148L 2.48125 43.2665C -1.95594 41.0737 0.885865 -0.0246342 1.0105 5.05888e-06C 1.13515 0.0246443 1.23483 1.60159 1.60875 4.1148Z"/>
<path id="panda_eat_54_fill" d="M 1.41835 23.0392C -3.09362 26.5872 4.58423 0.198637 4.78365 0.001523C 4.98308 -0.195591 6.25439 19.1462 1.41835 23.0392Z"/>
<path id="panda_eat_55_fill" d="M 2.49284 2.48893L 3.65157e-05 22.8657C 4.58679 18.7016 3.29051 -0.0981439 3.16587 0.000413157C 3.04123 0.0989702 2.94154 0.985933 2.49284 2.48893Z"/>
<path id="panda_eat_56_fill" d="M 27.672 2.08279C 30.8379 7.52807 0.251148 5.11341 0.00186777 4.84238C -0.247413 4.57134 24.3316 -3.78136 27.672 2.08279Z"/>
<path id="panda_eat_57_fill" d="M 2.76823 5.14059L 27.4221 1.81427C 23.5333 -3.55709 -0.198169 4.69707 0.00125567 4.82027C 0.916298 4.98153 1.84025 5.08851 2.76823 5.14059L 2.76823 5.14059Z"/>
<path id="panda_eat_58_fill" d="M 40.9832 2.62246C 45.6946 10.5563 0.275745 10.0143 0.00153654 9.57075C -0.272672 9.12724 36.0225 -5.92737 40.9832 2.62246Z"/>
<path id="panda_eat_59_fill" d="M 4.26315 9.62668L 40.7329 2.2349C 34.9745 -5.50183 -0.149092 9.30637 0.000476276 9.62668C 1.41991 9.71686 2.84372 9.71686 4.26315 9.62668Z"/>
<path id="panda_eat_60_fill" d="M 1.34312 20.9927C -2.94451 21.4116 4.38433 0.0493816 4.60868 0.000103105C 4.83303 -0.0491754 5.9548 20.5985 1.34312 20.9927Z"/>
<path id="panda_eat_61_fill" d="M 2.3183 1.97117L 1.52149e-05 20.9434C 4.38735 19.9824 3.16583 -0.0246526 3.06611 -1.33536e-05C 2.7746 0.640613 2.52484 1.29905 2.3183 1.97117Z"/>
<path id="panda_eat_62_fill" d="M 0.0738099 9.32484C -1.66391 14.7405 27.8439 0.276713 27.9442 0.0125352C 28.0444 -0.251643 1.87837 3.67803 0.0738099 9.32484Z"/>
<path id="panda_eat_63_fill" d="M 25.0299 1.32452L -3.67138e-05 9.08468C 2.47287 3.43787 27.8369 -0.128542 27.7701 0.00354737C 27.7032 0.135637 26.7008 0.498962 25.0299 1.32452Z"/>
<path id="panda_eat_64_stroke" d="M 0.162882 21.9474C 5.55461 17.3144 7.68667 14.7973 9.57958 11.9587C 11.4693 9.12495 13.0911 6.02225 17.5143 0.150421L 17.1149 -0.150421C 12.6825 5.73368 11.0272 8.88674 9.16359 11.6813C 7.30322 14.4711 5.2058 16.9549 -0.16298 21.5681L 0.162882 21.9474Z"/>
<path id="panda_eat_65_fill" d="M 1.04968 25.1631C -1.79083 25.7905 2.01875 0.0331198 2.15242 9.75335e-05C 2.28609 -0.0329247 4.15752 24.7007 1.04968 25.1631Z"/>
<path id="panda_eat_66_fill" d="M 0.568138 2.37761L -8.15862e-06 25.13C 2.87392 23.8421 1.03597 -0.0329236 0.969134 9.87201e-05C 0.902299 0.033121 0.768644 0.924626 0.568138 2.37761Z"/>
<path id="panda_eat_67_fill" d="M 2.32992 13.3757C 5.23726 15.4231 0.291455 0.166845 0.157784 0.00173343C 0.0241135 -0.163378 -0.644261 11.1962 2.32992 13.3757Z"/>
<path id="panda_eat_68_fill" d="M 0.68469 1.38686L 2.22188 13.2089C -0.7523 10.7983 0.0831914 -1.61242e-05 0.183445 -1.61242e-05C 0.283698 -1.61242e-05 0.417348 0.528284 0.68469 1.38686Z"/>
<path id="panda_eat_69_fill" d="M 0.14691 1.20139C -1.89157 4.50362 17.9585 2.95154 18.0922 2.81945C 18.2259 2.68736 2.31906 -2.19991 0.14691 1.20139Z"/>
<path id="panda_eat_70_fill" d="M 15.9737 2.97494L 1.63172e-05 1.05959C 2.50635 -2.07753 17.8785 2.74382 17.8451 2.80987L 15.9737 2.97494Z"/>
<path id="panda_eat_71_fill" d="M 0.22029 1.51231C -2.82072 6.1024 26.6203 5.73906 26.754 5.54093C 26.8876 5.3428 3.39497 -3.44103 0.22029 1.51231Z"/>
<path id="panda_eat_72_fill" d="M 23.6264 5.62152L 2.03966e-05 1.29561C 3.7428 -3.19542 26.5002 5.42329 26.4 5.52236C 25.4781 5.60824 24.5521 5.64141 23.6264 5.62152Z"/>
</defs>
</svg>
