<svg width="606" height="259" viewBox="0 0 606 259" version="1.1" xmlns="http://www.w3.org/2000/svg" xmlns:xlink="http://www.w3.org/1999/xlink">
<title>mountains</title>
<desc>Created using Figma</desc>
<g id="Canvas" transform="translate(7338 -4050)">
<g id="mountains">
<g id="ground">
<use xlink:href="#path0_fill" transform="matrix(1 -6.9209e-18 -2.4887e-05 1 -7338 4205)" fill="#ADAB6D"/>
</g>
<g id="grass">
<use xlink:href="#path1_fill" transform="matrix(1 -7.11088e-18 -2.42221e-05 1 -7311.72 4205)" fill="#94D46A"/>
</g>
<g id="Vector">
<use xlink:href="#path2_fill" transform="translate(-7295.85 4050)" fill="#91D166"/>
</g>
<g id="Vector">
<use xlink:href="#path3_fill" transform="translate(-7021.16 4158.79)" fill="#94D669"/>
</g>
<g id="Vector 4.1">
<use xlink:href="#path4_fill" transform="translate(-7293 4175)" fill="#98DB6B"/>
</g>
<g id="Vector 2.4">
<use xlink:href="#path5_fill" transform="translate(-7205.7 4076.39)" fill="#98DB6B"/>
</g>
<g id="Vector 2.5">
<use xlink:href="#path6_fill" transform="translate(-6979.09 4063.84)" fill="#98DB6B"/>
</g>
<g id="Subtract">
<use xlink:href="#path7_fill" transform="matrix(1 2.3222e-16 -1.36403e-16 1 -7003.06 4161)" fill="#FFFFFF" fill-opacity="0.5"/>
</g>
<g id="Group">
<g id="Vector">
<use xlink:href="#path8_fill" transform="translate(-7296.15 4126.74)" fill="#94D46A"/>
</g>
<g id="Vector">
<use xlink:href="#path9_fill" transform="translate(-7161 4134.34)" fill="#9BDE6F"/>
</g>
<g id="Vector 2.5">
<use xlink:href="#path10_fill" transform="translate(-6982.38 4128.69)" fill="#9BDE6F"/>
</g>
<g id="Vector 5.1">
<use xlink:href="#path11_fill" transform="translate(-6888.38 4126.82)" fill="#90CF67"/>
</g>
<g id="Vector">
<use xlink:href="#path12_fill" transform="translate(-7030.3 4207.46)" fill="#9AE56A"/>
</g>
<g id="Vector 6">
<use xlink:href="#path13_fill" transform="translate(-7294.07 4196)" fill="#9BDE6F"/>
</g>
</g>
<g id="Subtract">
<use xlink:href="#path14_fill" transform="translate(-7257 4185)" fill="#FFFFFF" fill-opacity="0.6"/>
</g>
<g id="Subtract">
<use xlink:href="#path15_fill" transform="matrix(1 2.3222e-16 -1.36403e-16 1 -7168 4087)" fill="#FFFFFF" fill-opacity="0.6"/>
</g>
<g id="Subtract">
<use xlink:href="#path16_fill" transform="matrix(1 2.3222e-16 -1.36403e-16 1 -6874 4138)" fill="#FFFFFF" fill-opacity="0.6"/>
</g>
<g id="Subtract">
<use xlink:href="#path17_fill" transform="matrix(1 2.3222e-16 -1.36403e-16 1 -7018.23 4211.75)" fill="#FFFFFF" fill-opacity="0.3"/>
</g>
</g>
</g>
<defs>
<path id="path0_fill" d="M 605.998 52C 605.998 80.7188 470.34 104 302.999 104C 135.657 104 0 80.7188 0 52C 0 23.2812 135.657 0 302.999 0C 470.34 0 605.998 23.2812 605.998 52Z"/>
<path id="path1_fill" d="M 557.958 45.5C 557.958 70.629 433.055 91 278.979 91C 124.903 91 0 70.629 0 45.5C 0 20.371 124.903 0 278.979 0C 433.055 0 557.958 20.371 557.958 45.5Z"/>
<path id="path2_fill" d="M 0 187.038C 8.76906 172.101 23.193 149.639 36.6409 132.311C 38.6095 129.774 42.4226 129.814 44.3986 132.344L 87.1009 187.038C 87.1009 187.038 141.468 26.4612 188.149 23.8532C 234.831 21.2452 273.459 167.497 273.459 167.497C 273.459 167.497 292.506 107 300.902 107C 309.298 107 323.644 147.804 323.644 147.804C 323.644 147.804 378.291 1.49906 410.456 0.00878929C 442.621 -1.48149 527.444 187.038 527.444 187.038L 87.1009 187.038L 0 187.038Z"/>
<path id="path3_fill" d="M 24.7784 0.00289683C 22.2514 -0.403191 6.20125 42.0006 1.37251 54.9221C 0.677471 56.782 1.95702 58.7663 3.93883 58.8875C 8.46498 59.1643 15.2759 59.4428 15.2759 58.6125C 15.2759 57.369 27.7592 0.481916 24.7784 0.00289683Z"/>
<path id="path4_fill" d="M 0 62L 34.0754 9.18305C 34.7352 8.1605 36.3036 8.98049 35.8405 10.1058L 14.481 62L 0 62Z"/>
<path id="path5_fill" d="M 0 149C 55.4625 -0.658081 103.158 -13.2778 89.7027 8.10584C 76.2473 29.4895 24.7133 158.606 24.7133 158.606L 0 149Z"/>
<path id="path6_fill" d="M 0 172.724C 43.1401 35.6418 79.3228 -1.74396 85.1858 0.0616714C 91.0488 1.8673 31.3234 172.724 31.3234 172.724L 0 172.724Z"/>
<path id="path7_fill" fill-rule="evenodd" d="M 43.7983 14L 0 14C 0.974121 9.62988 5.37549 6.33105 10.6577 6.33105C 12.2949 6.33105 13.8472 6.64795 15.2393 7.21533C 16.9854 2.94824 20.7197 1.00428e-15 25.0444 0C 29.5356 -1.04295e-15 33.3901 3.17969 35.0425 7.71338C 35.1484 7.70947 35.2549 7.70703 35.3618 7.70703C 39.124 7.70703 42.3613 10.292 43.7983 14Z"/>
<path id="path8_fill" d="M 0.140542 137.974C -3.59638 134.292 68.3316 69.2664 79.6706 69.2664C 91.0096 69.2664 137.021 137.974 137.021 137.974C 137.021 137.974 168.171 13.7359 190.766 0.830821C 213.361 -12.0743 264.936 129.631 264.936 129.631L 295.761 84.9607C 297.693 82.1614 301.795 82.0659 303.855 84.7724L 322.45 109.205L 405.598 5.54249C 407.56 3.09635 411.263 3.03915 413.3 5.42353L 522.294 133.026C 523.957 134.973 522.574 137.974 520.013 137.974L 137.021 137.974L 0.140542 137.974Z"/>
<path id="path9_fill" d="M 4.18209 121.659C 15.4076 87.0691 45.7409 -4.30602 51.5 0.157924C 57.8484 5.07864 38.9339 108.846 34.8779 130.657C 34.4387 133.019 32.39 134.658 29.9878 134.658L 13.6626 134.658C 6.89844 134.658 2.09408 128.092 4.18209 121.659Z"/>
<path id="path10_fill" d="M 6.03461 120.516L 91.8644 6.60627C 92.5756 5.66238 94.0479 6.51599 93.5821 7.60217L 43.5457 124.284C 42.4423 126.857 39.9119 128.525 37.1123 128.525L 10.0279 128.525C 5.90255 128.525 3.55205 123.811 6.03461 120.516Z"/>
<path id="path11_fill" d="M 101.313 125.132L 11.1986 13.8315C 10.4054 12.8518 8.90012 13.9366 9.57856 14.9989L 82.1482 128.635C 82.6993 129.498 83.6526 130.02 84.6766 130.02L 98.981 130.02C 101.505 130.02 102.901 127.094 101.313 125.132Z"/>
<path id="path12_fill" d="M 5.27485 42.7759L 34.1998 0L 16.5747 47.3218C 15.8459 49.2788 13.9775 50.5767 11.8892 50.5767L 9.41679 50.5767C 5.40843 50.5767 3.02955 46.0964 5.27485 42.7759Z"/>
<path id="path13_fill" d="M 77.7887 0.524024C 76.2472 -4.91074 37.8481 33.2016 15.5883 55.8873C 9.52952 62.062 13.7516 72.3809 22.3981 72.6538L 28.0396 72.8319C 31.3678 72.937 34.5269 71.3826 36.4512 68.6651C 46.8162 54.0281 79.6224 6.98884 77.7887 0.524024Z"/>
<path id="path14_fill" fill-rule="evenodd" d="M 45.7715 16L 18.2085 16C 18.1348 15.9546 18.0615 15.9082 17.9893 15.8613C 17.979 15.9077 17.9688 15.9541 17.958 16L 0.228027 16C 0.0786133 15.3652 0 14.7046 0 14.0259C 0 9.14844 4.07129 5.19482 9.09326 5.19482C 10.9883 5.19482 12.7476 5.75781 14.2041 6.7207C 15.312 2.8623 19.3887 0 24.2485 0C 28.6616 0 32.4297 2.36084 33.9141 5.68457C 34.8516 5.36768 35.8584 5.19531 36.9067 5.19531C 41.9287 5.19531 45.9995 9.14893 45.9995 14.0264C 45.9995 14.7051 45.9204 15.3652 45.7715 16Z"/>
<path id="path15_fill" fill-rule="evenodd" d="M 132 34L 0 34C 2.88281 23.3696 16.1719 15.334 32.1294 15.334C 37.0615 15.334 41.7383 16.1016 45.9316 17.4761C 51.1919 7.14111 62.4409 3.02532e-15 75.4688 0C 88.9976 -3.14166e-15 100.608 7.70068 105.585 18.6812C 105.903 18.6714 106.222 18.666 106.542 18.666C 117.916 18.666 127.694 24.9702 132 34Z"/>
<path id="path16_fill" fill-rule="evenodd" d="M 104 33L 0 33C 2.31348 22.6987 12.7642 14.9233 25.3071 14.9233C 29.1948 14.9233 32.8818 15.6699 36.1875 17.0078C 40.334 6.94971 49.2017 2.38479e-15 59.4712 5.41228e-31C 70.1362 -2.47663e-15 79.2886 7.49463 83.2124 18.1821C 83.4629 18.1724 83.7144 18.1675 83.9668 18.1675C 92.9014 18.1675 100.587 24.2607 104 33Z"/>
<path id="path17_fill" fill-rule="evenodd" d="M 24.873 10.02L 0 10.02C 0.553223 6.89209 3.05225 4.53125 6.05225 4.53125C 6.98242 4.53125 7.86426 4.7583 8.65527 5.16455C 9.64697 2.11035 11.7676 5.70344e-16 14.2236 0C 16.7744 -5.92342e-16 18.9629 2.27588 19.9014 5.521C 19.9614 5.51807 20.0215 5.5166 20.082 5.5166C 22.2183 5.5166 24.0566 7.3667 24.873 10.02Z"/>
</defs>
</svg>
