<svg width="1440" height="305" viewBox="0 0 1440 305" version="1.1" xmlns="http://www.w3.org/2000/svg" xmlns:xlink="http://www.w3.org/1999/xlink">
<title>mountains dark</title>
<desc>Created using Figma</desc>
<g id="Canvas" transform="translate(7226 -1168)">
<g id="mountains dark">
<g id="Vector">
<use xlink:href="#path0_fill" transform="translate(-7225.92 1168)" fill="#99CF76"/>
</g>
<g id="Vector">
<use xlink:href="#path1_fill" transform="translate(-6470.5 1341)" fill="#A1E376"/>
</g>
<g id="Vector 4.1">
<use xlink:href="#path2_fill" transform="translate(-7222 1364)" fill="#A1E376"/>
</g>
<g id="Vector 2.4">
<use xlink:href="#path3_fill" transform="translate(-6978.5 1216.81)" fill="#A1E376"/>
</g>
<g id="Vector 2.5">
<use xlink:href="#path4_fill" transform="translate(-6361.17 1178.57)" fill="#A1E376"/>
</g>
</g>
</g>
<defs>
<path id="path0_fill" d="M 0 289.402C 25.6313 264.657 68.9591 226.564 107.766 199.165C 109.505 197.937 111.827 197.965 113.549 199.215L 237.786 289.402C 237.786 289.402 386.208 40.9431 513.648 36.9078C 641.089 32.8725 746.543 259.167 746.543 259.167C 746.543 259.167 798.543 165.559 821.464 165.559C 844.385 165.559 883.549 228.695 883.549 228.695C 883.549 228.695 1032.74 2.31949 1120.55 0.0135996C 1208.36 -2.29229 1439.92 289.402 1439.92 289.402L 237.786 289.402L 0 289.402Z"/>
<path id="path1_fill" d="M 59 0.0047221C 51.6958 -0.660537 9.97185 69.1654 1.50049 83.4776C 0.656558 84.9034 1.32544 86.0906 2.98043 86.1692C 11.6416 86.5803 36.1964 87.606 36.1964 86.0213C 36.1964 84.0973 67.1377 0.745904 59 0.0047221Z"/>
<path id="path2_fill" d="M 6.19096 87.7178L 102.93 5.17939C 103.825 4.41565 105.074 5.55617 104.395 6.51717L 44.1876 91.7311C 43.6254 92.5269 42.7118 93 41.7374 93L 8.13816 93C 5.34957 93 4.06959 89.5278 6.19096 87.7178Z"/>
<path id="path3_fill" d="M 0 256.194C 142.671 15.9376 283.554 -23.6106 248.942 10.7179C 214.329 45.0465 92.5 256.194 92.5 256.194L 0 256.194Z"/>
<path id="path4_fill" d="M 0 278.099C 117.772 65.9925 225.683 -2.71249 241.689 0.0813489C 257.695 2.87518 85.5131 278.099 85.5131 278.099L 0 278.099Z"/>
</defs>
</svg>
