<svg width="1440" height="266" viewBox="0 0 1440 266" version="1.1" xmlns="http://www.w3.org/2000/svg" xmlns:xlink="http://www.w3.org/1999/xlink">
<title>mountains light</title>
<desc>Created using Figma</desc>
<g id="Canvas" transform="translate(7226 -1294)">
<g id="mountains light">
<g id="Vector">
<use xlink:href="#path0_fill" transform="translate(-7226 1294.8)" fill="#95D968"/>
</g>
<g id="Vector">
<use xlink:href="#path1_fill" transform="translate(-6862.08 1303.7)" fill="#9AE56A"/>
</g>
<g id="Vector">
<use xlink:href="#path2_fill" transform="translate(-6669.45 1315.6)" fill="#92D468"/>
</g>
<g id="Vector 2.5">
<use xlink:href="#path3_fill" transform="translate(-6441.87 1306.5)" fill="#9AE56A"/>
</g>
<g id="Vector 5.1">
<use xlink:href="#path4_fill" transform="translate(-6110.77 1303.63)" fill="#92D468"/>
</g>
<g id="Vector">
<use xlink:href="#path5_fill" transform="translate(-6498.88 1393.04)" fill="#9AE56A"/>
</g>
<g id="Vector 6">
<use xlink:href="#path6_fill" transform="translate(-7224.61 1397.26)" fill="#9AE56A"/>
</g>
</g>
</g>
<defs>
<path id="path0_fill" d="M 0.459515 219.714C -9.76018 213.849 153.556 96.3062 184.566 96.3062C 215.575 96.3062 334 219.714 334 219.714C 334 219.714 459.987 21.8734 521.779 1.32302C 583.572 -19.2274 724.621 206.428 724.621 206.428L 809.761 98.6606C 811.714 96.1886 815.439 96.1169 817.485 98.5119L 881.908 173.9L 1116.79 3.3897C 1118.5 2.14997 1120.8 2.1159 1122.54 3.30456L 1440 219.714L 334 219.714L 0.459515 219.714Z"/>
<path id="path1_fill" d="M 0.0829212 189.798C -3.93134 184.728 139.083 -8.60513 151.083 0.298282C 161.848 8.2859 96.5548 154.463 83.0088 184.449C 81.4954 187.8 78.333 189.947 74.6634 190.164C 56.6327 191.231 3.41353 194.005 0.0829212 189.798Z"/>
<path id="path2_fill" d="M 117.924 205.195L 163.956 205.195C 167.886 205.195 170.249 200.823 168.155 197.497C 100.083 89.4098 62.3587 40.9071 15.3487 9.48839C 11.1327 6.67071 6.34427 11.3207 8.8233 15.7443L 113.562 202.639C 114.446 204.218 116.114 205.195 117.924 205.195Z"/>
<path id="path3_fill" d="M 12.0356 244.497L 333.25 4.201C 334.177 3.50811 335.344 4.67897 334.648 5.60312L 150.146 250.711C 148.824 252.468 146.753 253.501 144.554 253.501L 15.0307 253.501C 10.2225 253.501 8.18555 247.378 12.0356 244.497Z"/>
<path id="path4_fill" d="M 304.378 214.763L 11.1068 7.83674C 10.0945 7.12252 8.94356 8.52308 9.84039 9.37774L 230.21 219.386C 230.768 219.918 231.509 220.215 232.279 220.215L 302.649 220.215C 305.576 220.215 306.77 216.451 304.378 214.763Z"/>
<path id="path5_fill" d="M 6.16287 103.411L 85.4159 0L 45.6224 108.179C 44.8988 110.146 43.0255 111.453 40.9298 111.453L 10.1314 111.453C 5.9872 111.453 3.64197 106.701 6.16287 103.411Z"/>
<path id="path6_fill" d="M 178.677 0.620342C 173.455 -8.59544 42.0287 87.5259 7.98962 112.641C 3.54551 115.92 4.47716 118.555 10 118.555L 83.5292 118.555C 89.052 118.555 96.3946 115.172 99.9362 110.934C 120.576 86.2373 183.704 9.49099 178.677 0.620342Z"/>
</defs>
</svg>
