<svg width="1239" height="579" viewBox="0 0 1239 579" xmlns="http://www.w3.org/2000/svg" xmlns:xlink="http://www.w3.org/1999/xlink"><title>Clouds</title><desc>Created using Figma</desc><use xlink:href="#a" transform="translate(79 120)" fill="url(#b)" fill-opacity=".4"/><use xlink:href="#c" transform="translate(0 156)" fill="url(#d)" fill-opacity=".4"/><use xlink:href="#e" transform="translate(554)" fill="url(#f)" fill-opacity=".4"/><use xlink:href="#g" transform="translate(485 31)" fill="url(#h)" fill-opacity=".4"/><use xlink:href="#i" transform="translate(852 484)" fill="url(#j)" fill-opacity=".4"/><use xlink:href="#k" transform="translate(978 103)" fill="url(#l)" fill-opacity=".4"/><defs><linearGradient id="b" x2="1" gradientUnits="userSpaceOnUse" gradientTransform="matrix(0 87 -238.345 0 238.345 0)"><stop offset="0" stop-color="#FFF"/><stop offset="1" stop-color="#FFF" stop-opacity="0"/></linearGradient><linearGradient id="d" x2="1" gradientUnits="userSpaceOnUse" gradientTransform="matrix(0 56 -208 0 208 0)"><stop offset="0" stop-color="#FFF"/><stop offset="1" stop-color="#FFF" stop-opacity="0"/></linearGradient><linearGradient id="f" x2="1" gradientUnits="userSpaceOnUse" gradientTransform="matrix(0 103 -243.735 0 243.735 0)"><stop offset="0" stop-color="#FFF"/><stop offset="1" stop-color="#FFF" stop-opacity="0"/></linearGradient><linearGradient id="h" x2="1" gradientUnits="userSpaceOnUse" gradientTransform="matrix(0 59 -169 0 169 0)"><stop offset="0" stop-color="#FFF"/><stop offset="1" stop-color="#FFF" stop-opacity="0"/></linearGradient><linearGradient id="j" x2="1" gradientUnits="userSpaceOnUse" gradientTransform="matrix(0 95 -251 0 251 0)"><stop offset="0" stop-color="#FFF"/><stop offset="1" stop-color="#FFF" stop-opacity="0"/></linearGradient><linearGradient id="l" x2="1" gradientUnits="userSpaceOnUse" gradientTransform="matrix(0 91.4194 -261 0 261 17.58)"><stop offset="0" stop-color="#FFF"/><stop offset="1" stop-color="#FFF" stop-opacity="0"/></linearGradient><path id="a" fill-rule="evenodd" d="M238.345 87H0c4.8-23.512 21.997-40.911 42.476-40.911 1.683 0 3.345.117 4.979.346C57.435 19.105 80.265 0 106.834 0c26.894 0 49.958 19.575 59.74 47.441a67.427 67.427 0 0 1 10.942-.89c27.671 0 51.32 16.771 60.829 40.449z"/><path id="c" fill-rule="evenodd" d="M208 56H0c4.189-15.134 19.197-26.334 37.068-26.334 1.47 0 2.92.076 4.345.223C50.123 12.297 70.047 0 93.233 0c23.47 0 43.597 12.6 52.134 30.537a79.344 79.344 0 0 1 9.55-.573C179.063 29.964 199.703 40.76 208 56z"/><path id="e" fill-rule="evenodd" d="M243.735 103H.052A68.71 68.71 0 0 1 0 100.339c0-29.962 19.614-54.25 43.81-54.25 1.683 0 3.345.117 4.979.346C58.769 19.105 81.599 0 108.168 0c26.894 0 49.958 19.575 59.74 47.441a67.427 67.427 0 0 1 10.942-.89c33.573 0 61.228 24.689 64.885 56.449z"/><path id="g" fill-rule="evenodd" d="M169 59H.036A32.207 32.207 0 0 1 0 57.476C0 40.313 13.6 26.4 30.377 26.4c1.167 0 2.319.068 3.452.199C40.749 10.944 56.579 0 75 0c18.647 0 34.639 11.213 41.422 27.175a56.378 56.378 0 0 1 7.588-.51c23.278 0 42.453 14.142 44.989 32.335z"/><path id="i" fill-rule="evenodd" d="M251 95H.053A56.037 56.037 0 0 1 0 92.546C0 64.91 20.2 42.509 45.116 42.509c1.734 0 3.444.108 5.127.32C60.52 17.62 84.033 0 111.393 0c27.695 0 51.446 18.055 61.521 43.756 3.663-.54 7.428-.82 11.267-.82 34.573 0 63.053 22.77 66.819 52.064z"/><path id="k" fill-rule="evenodd" d="M261 109H.056A50.506 50.506 0 0 1 0 106.638c0-26.593 21.004-48.15 46.914-48.15.666 0 1.329.014 1.988.042C57.45 24.906 88.372 0 125.209 0c37.19 0 68.352 25.386 76.547 59.5C232.959 63.195 257.462 83.536 261 109z"/></defs></svg>