<svg width="1440" height="305" viewBox="0 0 1440 305" xmlns="http://www.w3.org/2000/svg" xmlns:xlink="http://www.w3.org/1999/xlink"><title>mountains dark</title><desc>Created using Figma</desc><use xlink:href="#a" transform="translate(.08)" fill="#99CF76"/><use xlink:href="#b" transform="translate(755.5 173)" fill="#A1E376"/><use xlink:href="#c" transform="translate(4 196)" fill="#A1E376"/><use xlink:href="#d" transform="translate(247.5 48.81)" fill="#A1E376"/><use xlink:href="#e" transform="translate(864.83 10.57)" fill="#A1E376"/><defs><path id="a" d="M0 289.402c25.631-24.745 68.96-62.838 107.766-90.237a4.964 4.964 0 0 1 5.783.05l124.237 90.187S386.208 40.943 513.648 36.908c127.441-4.035 232.895 222.259 232.895 222.259s52-93.608 74.921-93.608c22.921 0 62.085 63.136 62.085 63.136S1032.74 2.319 1120.55.014c87.81-2.306 319.37 289.388 319.37 289.388H0z"/><path id="b" d="M59 .005C51.696-.661 9.972 69.165 1.5 83.478c-.843 1.425-.175 2.613 1.48 2.691 8.662.411 33.216 1.437 33.216-.148C36.196 84.097 67.138.746 59 .005z"/><path id="c" d="M6.191 87.718L102.93 5.179c.895-.763 2.144.377 1.465 1.338L44.188 91.731A3 3 0 0 1 41.738 93h-33.6c-2.788 0-4.068-3.472-1.947-5.282z"/><path id="d" d="M0 256.194C142.671 15.938 283.554-23.611 248.942 10.718 214.329 45.047 92.5 256.194 92.5 256.194H0z"/><path id="e" d="M0 278.099C117.772 65.993 225.683-2.712 241.689.081 257.695 2.875 85.513 278.1 85.513 278.1H0z"/></defs></svg>